<svg xmlns="http://www.w3.org/2000/svg" width="112.696" height="73.347" viewBox="0 0 112.696 73.347">
  <g id="Group_2424" data-name="Group 2424" transform="translate(-189.827 -280.568)">
    <path id="Path_8860" data-name="Path 8860"
      d="M302.523,320.592a7.188,7.188,0,0,0-.311-1.3,3.673,3.673,0,0,0-1.846-1.761c-.926-.488-1.895-.933-2.828-1.414l-.615-.29c-1.075-1.626-3.578-3.012-6.654-3.472a11.558,11.558,0,0,0-5.933.545c-.275.063-.551.127-.82.2a21.134,21.134,0,0,1-4.4.516q-4.547.162-9.094.339-3.754.205-7.474.333h-.085L205.77,280.648a.573.573,0,0,0-.545-.022l-5.5,2.645a.58.58,0,0,0-.255.78.554.554,0,0,0,.121.16L232.661,314.7l.177.177-2.638.148-9.411.375c-.531.021-1.054.049-1.577.063l-8.521-12.225a.7.7,0,0,0-.573-.319l-3.712-.233a.77.77,0,0,0-.785.755v.03l-.042,6.647-.113,1.852-13.018-8.577a.919.919,0,0,0-1.082.05l-1.209.983a.929.929,0,0,0-.135,1.279l9.879,12.41a2.12,2.12,0,0,0-1.16,2.051,2.389,2.389,0,0,0,2.475,1.612l.657.163a1.571,1.571,0,0,0,.312.056h0l4.674,8.337a1.309,1.309,0,0,0,.954.672l1.082.162a1.318,1.318,0,0,0,1.407-.8l2.383-5.338c2.051.424,4.1.876,6.166,1.23,3.373.544,6.689,1.131,10.069,1.584,2.666.361,5.36.594,8.04.841,1.315.1,2.687.142,4.024.22a.564.564,0,0,1,.374.176l5.572,6.661-2.453,16.893a.619.619,0,0,0,.516.709l.042.005,5.459.566a.629.629,0,0,0,.6-.29l15.245-24.735a.323.323,0,0,0,.085-.084.92.92,0,0,1,.333-.05c2.439-.035,4.879-.014,7.339-.085q5.177-.254,10.338-.721a62.625,62.625,0,0,0,9.631-1.584,26.15,26.15,0,0,0,4.518-1.52,9.583,9.583,0,0,0,2.765-1.775,4.649,4.649,0,0,0,1.019-1.57Z" />
  </g>
</svg>