<svg xmlns="http://www.w3.org/2000/svg" width="169.915" height="97.515" viewBox="0 0 169.915 97.515">
  <path id="Path_8818" data-name="Path 8818"
    d="M1698.36,380.6c5.494-19.707,12.559-24.735,35.234-25.1.6-1.716,1.211-3.564,1.89-5.386a31.69,31.69,0,0,1,28.89-20.842,31.273,31.273,0,0,1,29.99,19.139c1.481,3.5,2.666,5.57,7.268,5.7,19.953.583,34.688,16.043,34.538,35.5-.152,19.616-15.59,34.972-35.839,35.072-35.859.176-71.72.091-107.58.03-15.1-.026-25.617-10.638-24.386-24.368,1.233-13.76,13.167-22.027,28.263-19.6A8.772,8.772,0,0,0,1698.36,380.6Z"
    transform="translate(-1667.256 -328.269)" fill="#fff" stroke="#000" stroke-miterlimit="10" stroke-width="2" />
</svg>