<svg xmlns="http://www.w3.org/2000/svg" width="196.358" height="83.44" viewBox="0 0 196.358 83.44">
  <path id="Path_8817" data-name="Path 8817"
    d="M1145.332,248.351c15.848-7.907,24.241-6.225,36.15,6.661.987,1.068,3.169,1.478,4.782,1.447,12.5-.244,21.71,7.79,21.953,19.354.252,11.976-8.524,20.619-21.275,20.632q-77.361.081-154.722.009c-10.932-.008-18.284-6.774-18.354-16.618-.07-10.013,6.838-16.4,17.976-16.959a5.869,5.869,0,0,0,4.17-2.383c6.9-11.882,17.149-17.734,30.808-17.077,3.833.184,4.054-2.262,5-4.543,6.167-14.882,19.646-23.9,35.633-23.83a37.5,37.5,0,0,1,35.01,23.9C1143.607,241.846,1144.3,244.927,1145.332,248.351Z"
    transform="translate(-1012.865 -214.044)" fill="#fff" stroke="#000" stroke-miterlimit="10" stroke-width="2" />
</svg>