<svg xmlns="http://www.w3.org/2000/svg" width="116.144" height="104.193" viewBox="0 0 116.144 104.193">
  <path id="Path_8819" data-name="Path 8819"
    d="M184.409,335.311c-6.232-7.334-8.891-15.778-6.519-25.343,2.772-11.179,12.053-18.988,23.659-20.251a26.342,26.342,0,0,1,26.168,14.656c1.729,3.578,3.607,5.088,7.593,5.349,12.565.825,25.619,14.387,19.2,33.13,3.16,2.083,6.78,3.757,9.419,6.408,2.671,2.682,4.371,6.33,6.874,10.129.881,0,2.575-.041,4.267.007,8.486.237,15.011,6.156,15.817,14.319a15.855,15.855,0,0,1-13.014,17.548,33.645,33.645,0,0,1-6.471.447c-19.1.033-38.193-.061-57.288.046-14.142.08-25.584-5.036-32.58-17.608-6.951-12.492-5.937-24.976,1.981-36.887A14.623,14.623,0,0,0,184.409,335.311Z"
    transform="translate(-175.84 -288.563)" fill="#fff" stroke="#000" stroke-miterlimit="10" stroke-width="2" />
</svg>