<svg width="1403" height="75" viewBox="0 0 1403 75" fill="none" xmlns="http://www.w3.org/2000/svg">
  <path d="M0 0.736322H108.168V9.15147H21.6336V33.7658H93.2482V42.1809H21.6336V74.3689H0V0.736322Z" fill="black" />
  <path
    d="M186.825 0.736322C198.263 0.736322 208.375 1.68303 217.161 3.57644C225.947 5.39972 232.744 8.02945 237.552 11.4656C242.359 14.8317 244.763 18.7938 244.763 23.352C244.763 28.4712 241.364 32.9243 234.568 36.7111C227.937 40.4278 218.985 42.9523 207.712 44.2847L246.752 74.3689H222.383L186.327 46.0729H141.817V74.3689H120.183V0.736322H186.825ZM141.817 37.6578H185.084C196.522 37.6578 205.64 36.3605 212.437 33.7658C219.234 31.1711 222.632 27.6999 222.632 23.352C222.632 19.0743 219.234 15.6382 212.437 13.0435C205.64 10.4488 196.605 9.15147 185.333 9.15147H141.817V37.6578Z"
    fill="black" />
  <path
    d="M261.007 0.736322H371.91V9.15147H282.641V32.7139H356.991V41.129H282.641V65.9537H375.143V74.3689H261.007V0.736322Z"
    fill="black" />
  <path
    d="M403.153 50.2805C403.981 55.2595 408.706 59.2567 417.326 62.2721C425.947 65.2174 436.888 66.69 450.15 66.69C462.085 66.69 471.7 65.6031 478.994 63.4292C486.454 61.1851 490.184 58.0996 490.184 54.1725C490.184 51.2973 488.112 49.0182 483.968 47.3352C479.989 45.6522 474.767 44.425 468.302 43.6536C462.002 42.8121 453.382 42.0056 442.441 41.2342C425.035 39.972 411.193 37.9032 400.915 35.028C390.637 32.1529 385.498 27.4895 385.498 21.0379C385.498 16.9004 387.984 13.2539 392.957 10.0982C397.931 6.87237 404.893 4.38289 413.845 2.62973C422.963 0.87658 433.323 0 444.928 0C457.195 0 468.053 0.946705 477.502 2.84011C486.952 4.73352 494.411 7.39832 499.882 10.8345C505.353 14.2006 508.419 18.0926 509.082 22.5105H487.698C486.371 18.2328 481.813 14.7966 474.021 12.202C466.23 9.60729 456.532 8.30996 444.928 8.30996C433.323 8.30996 424.123 9.39692 417.326 11.5708C410.529 13.6746 407.131 16.655 407.131 20.5119C407.131 23.317 409.12 25.5259 413.099 27.1388C417.078 28.6816 422.217 29.8738 428.516 30.7153C434.815 31.4867 443.436 32.2581 454.377 33.0294C471.783 34.2917 485.708 36.3955 496.152 39.3408C506.596 42.216 511.818 46.8794 511.818 53.331C511.818 57.5386 509.165 61.2903 503.861 64.5863C498.722 67.8822 491.427 70.4418 481.978 72.2651C472.695 74.0884 462.002 75 449.901 75C436.307 75 424.455 73.9832 414.342 71.9495C404.23 69.8457 396.356 66.9355 390.719 63.2188C385.249 59.432 382.265 55.1192 381.768 50.2805H403.153Z"
    fill="black" />
  <path
    d="M528.086 0.631137H549.719V32.7139H639.735V0.631137H661.368V74.3689H639.735V41.129H549.719V74.3689H528.086V0.631137Z"
    fill="black" />
  <path
    d="M799.523 0.736322C817.924 0.736322 832.098 2.41935 842.044 5.78542C852.157 9.15147 857.213 13.8149 857.213 19.7756C857.213 24.1234 854.56 27.7349 849.256 30.6101C843.951 33.4152 836.242 35.3787 826.13 36.5007C851.659 38.5344 864.424 44.3899 864.424 54.0673C864.424 60.3787 858.953 65.3577 848.012 69.0042C837.237 72.5807 821.654 74.3689 801.264 74.3689H737.855V0.736322H799.523ZM759.489 32.7139H800.518C811.625 32.7139 820.245 31.662 826.379 29.5582C832.512 27.4544 835.579 24.5442 835.579 20.8275C835.579 17.1108 832.512 14.2356 826.379 12.202C820.411 10.0982 811.79 9.04628 800.518 9.04628H759.489V32.7139ZM759.489 66.0589H801.264C814.526 66.0589 824.638 64.9719 831.601 62.798C838.729 60.6241 842.293 57.6087 842.293 53.7518C842.293 49.6143 838.729 46.4586 831.601 44.2847C824.472 42.0407 814.36 40.9187 801.264 40.9187H759.489V66.0589Z"
    fill="black" />
  <path
    d="M861.834 74.3689L928.227 0.736322H953.839L1019.98 74.3689H996.858L978.457 54.4881H902.615L884.214 74.3689H861.834ZM909.08 46.1781H971.992L940.411 10.7293L909.08 46.1781Z"
    fill="black" />
  <path
    d="M1028.49 0.736322H1050.12V42.4965L1137.9 0.736322H1164.26L1100.6 31.7672L1169.23 74.3689H1143.37L1084.69 38.7097L1050.12 55.2244V74.3689H1028.49V0.736322Z"
    fill="black" />
  <path d="M1175.87 0.736322H1197.5V74.3689H1175.87V0.736322Z" fill="black" />
  <path
    d="M1220.05 74.3689V0.736322H1239.94L1333.43 57.5386V0.736322H1354.57V74.3689H1334.68L1241.18 17.5666V74.3689H1220.05Z"
    fill="black" />
  <path
    d="M1383.36 0.105188C1389.32 0.105188 1394.05 1.15708 1397.53 3.26087C1401.18 5.29453 1403 7.81908 1403 10.8345C1403 15.3226 1399.85 18.8289 1393.55 21.3534C1387.42 23.878 1378.88 25.2104 1367.94 25.3506V20.4067C1375.23 20.3366 1380.54 19.46 1383.85 17.777C1387.17 16.094 1388.83 14.1655 1388.83 11.9916C1388.83 11.3604 1388.74 10.9046 1388.58 10.6241C1386.59 11.4656 1383.77 11.8864 1380.12 11.8864C1376.14 11.8864 1372.91 11.3955 1370.43 10.4137C1368.1 9.43198 1366.94 8.02945 1366.94 6.20617C1366.94 4.45301 1368.35 3.01543 1371.17 1.89341C1374.16 0.701264 1378.22 0.105188 1383.36 0.105188Z"
    fill="black" />
</svg>