<?xml version="1.0" encoding="utf-8"?>
<!-- Generator: Adobe Illustrator 24.3.0, SVG Export Plug-In . SVG Version: 6.00 Build 0)  -->
<svg version="1.1" id="Layer_1" xmlns="http://www.w3.org/2000/svg" xmlns:xlink="http://www.w3.org/1999/xlink" x="0px" y="0px"
	 viewBox="0 0 285.4 197.1" style="enable-background:new 0 0 285.4 197.1;" xml:space="preserve">
<style type="text/css">
	.st0{fill:url(#SVGID_1_);}
	.st1{fill:url(#SVGID_2_);}
	.st2{fill:url(#SVGID_3_);}
	.st3{fill:url(#SVGID_4_);}
	.st4{fill:url(#SVGID_5_);}
	.st5{fill:url(#SVGID_6_);}
	.st6{fill:url(#SVGID_7_);}
	.st7{fill:url(#SVGID_8_);}
	.st8{fill:url(#SVGID_9_);}
	.st9{fill:url(#SVGID_10_);}
	.st10{fill:url(#SVGID_11_);}
	.st11{fill:url(#SVGID_12_);}
	.st12{fill:url(#SVGID_13_);}
	.st13{fill:url(#SVGID_14_);}
	.st14{fill:url(#SVGID_15_);}
	.st15{fill:url(#SVGID_16_);}
	.st16{fill:url(#SVGID_17_);}
	.st17{fill:url(#SVGID_18_);}
	.st18{fill:url(#SVGID_19_);}
	.st19{fill:url(#SVGID_20_);}
	.st20{fill:url(#SVGID_21_);}
	.st21{fill:url(#SVGID_22_);}
	.st22{fill:url(#SVGID_23_);}
	.st23{fill:url(#SVGID_24_);}
	.st24{fill:url(#SVGID_25_);}
	.st25{fill:url(#SVGID_26_);}
	.st26{fill:url(#SVGID_27_);}
	.st27{fill:url(#SVGID_28_);}
	.st28{fill:url(#SVGID_29_);}
	.st29{fill:url(#SVGID_30_);}
	.st30{fill:url(#SVGID_31_);}
	.st31{fill:url(#SVGID_32_);}
	.st32{fill:url(#SVGID_33_);}
	.st33{fill:url(#SVGID_34_);}
	.st34{fill:url(#SVGID_35_);}
	.st35{fill:url(#SVGID_36_);}
	.st36{fill:url(#SVGID_37_);}
	.st37{fill:url(#SVGID_38_);}
	.st38{fill:url(#SVGID_39_);}
	.st39{fill:url(#SVGID_40_);}
	.st40{fill:url(#SVGID_41_);}
	.st41{fill:url(#SVGID_42_);}
	.st42{fill:url(#SVGID_43_);}
	.st43{fill:url(#SVGID_44_);}
	.st44{fill:url(#SVGID_45_);}
	.st45{fill:url(#SVGID_46_);}
	.st46{fill:url(#SVGID_47_);}
	.st47{fill:url(#SVGID_48_);}
	.st48{fill:url(#SVGID_49_);}
	.st49{fill:url(#SVGID_50_);}
	.st50{fill:url(#SVGID_51_);}
	.st51{fill:url(#SVGID_52_);}
	.st52{fill:url(#SVGID_53_);}
	.st53{fill:url(#SVGID_54_);}
	.st54{fill:url(#SVGID_55_);}
	.st55{fill:url(#SVGID_56_);}
	.st56{fill:url(#SVGID_57_);}
	.st57{fill:url(#SVGID_58_);}
	.st58{fill:url(#SVGID_59_);}
	.st59{fill:url(#SVGID_60_);}
	.st60{fill:url(#SVGID_61_);}
	.st61{fill:url(#SVGID_62_);}
	.st62{fill:url(#SVGID_63_);}
	.st63{fill:url(#SVGID_64_);}
	.st64{fill:url(#SVGID_65_);}
	.st65{fill:url(#SVGID_66_);}
	.st66{fill:url(#SVGID_67_);}
	.st67{fill:url(#SVGID_68_);}
	.st68{fill:url(#SVGID_69_);}
	.st69{fill:url(#SVGID_70_);}
	.st70{fill:url(#SVGID_71_);}
	.st71{fill:url(#SVGID_72_);}
</style>
<g id="Layer_2_1_">
	<g id="Layer_1-2">
		<path d="M129.3,120.1v-10.5h6.6v1.2h-5.3v3.7h4.5v1.1h-4.5v4.5L129.3,120.1z"/>
		<path d="M142.5,120.3c-0.8,0-1.6-0.2-2.2-0.7c-0.6-0.5-1.1-1.1-1.4-1.9c-0.7-1.9-0.7-3.9,0-5.7c0.3-0.8,0.8-1.4,1.4-1.9
			c1.3-0.9,3.1-0.9,4.4,0c0.6,0.5,1.1,1.1,1.4,1.9c0.7,1.9,0.7,3.9,0,5.7c-0.3,0.8-0.8,1.4-1.4,1.9
			C144.1,120.1,143.3,120.3,142.5,120.3z M142.5,119.1c0.8,0,1.6-0.4,2-1.1c1-2,1-4.3,0-6.3c-0.7-1.1-2.2-1.4-3.3-0.7
			c-0.3,0.2-0.5,0.4-0.7,0.7c-1,2-1,4.3,0,6.3C141,118.7,141.7,119.1,142.5,119.1z"/>
		<path d="M149.4,120.1v-10.5h3.2c0.7,0,1.4,0.1,2,0.4c0.5,0.2,0.9,0.6,1.2,1.1s0.4,1,0.4,1.6s-0.2,1.3-0.5,1.8
			c-0.4,0.5-1,0.9-1.6,1.1l2.3,4.5h-1.5l-2.1-4.3h-2v4.3H149.4z M150.7,114.7h1.9c0.6,0.1,1.3-0.1,1.8-0.5c0.4-0.4,0.6-0.9,0.6-1.4
			s-0.2-1.1-0.6-1.4c-0.5-0.4-1.1-0.6-1.8-0.5h-1.9V114.7z"/>
		<path d="M169,120.1l3.3-10.5h1.5l3.3,10.5h-1.4l-0.8-2.6h-3.7l-0.8,2.6H169z M173,111.4l-1.5,5.1h3.1L173,111.4L173,111.4z"/>
		<path d="M128.9,152.1v-10.5h2.2c1.4-0.1,2.8,0.4,3.8,1.4c1.6,2.3,1.6,5.4,0,7.7c-1,1-2.4,1.5-3.8,1.4L128.9,152.1L128.9,152.1z
			 M130.1,151h0.9c0.8,0,1.5-0.1,2.2-0.5c0.5-0.3,1-0.8,1.2-1.4c0.5-1.4,0.5-2.9,0-4.3c-0.2-0.6-0.7-1.1-1.2-1.4
			c-0.7-0.4-1.4-0.5-2.2-0.5h-0.9V151z"/>
		<path d="M139.4,152.1v-10.5h6.6v1.1h-5.3v3.5h4.8v1.1h-4.8v3.6h5.3v1.1L139.4,152.1z"/>
		<path d="M152.8,152.3c-0.8,0-1.6-0.2-2.2-0.7c-0.6-0.5-1.1-1.1-1.4-1.9c-0.7-1.9-0.7-3.9,0-5.7c0.3-0.7,0.8-1.4,1.4-1.9
			c0.6-0.5,1.4-0.7,2.2-0.7c1,0,1.9,0.3,2.6,0.9c0.7,0.6,1.1,1.5,1.1,2.4h-1.4c-0.1-0.6-0.3-1.1-0.8-1.5c-0.4-0.4-1-0.6-1.6-0.6
			c-0.8,0-1.6,0.4-2.1,1.1c-1,2-1,4.3,0,6.2c0.4,0.7,1.2,1.1,2.1,1.1c0.6,0,1.2-0.2,1.6-0.6c0.4-0.4,0.7-0.9,0.7-1.5h1.4
			c-0.1,0.9-0.5,1.7-1.2,2.4C154.6,152.1,153.7,152.4,152.8,152.3z"/>
		<path d="M159.6,152.1v-10.5h6.6v1.1h-5.3v3.5h4.8v1.1h-4.8v3.6h5.3v1.1L159.6,152.1z"/>
		<path d="M169.4,152.1v-10.5h1.3l4.8,8.3v-8.3h1.2v10.5h-1.3l-4.8-8.3v8.3H169.4z"/>
		<path d="M182.5,152.1v-9.4h-2.8v-1.1h6.9v1.1h-2.8v9.4H182.5z"/>
		<path d="M190,152.1v-10.5h3.2c0.7,0,1.4,0.1,2,0.4c0.5,0.2,0.9,0.6,1.2,1.1s0.4,1,0.4,1.6s-0.2,1.3-0.5,1.8
			c-0.4,0.5-1,0.9-1.6,1.1l2.3,4.5h-1.5l-2.1-4.3h-2v4.3L190,152.1z M191.3,146.7h1.9c0.6,0.1,1.3-0.1,1.8-0.5
			c0.4-0.4,0.6-0.9,0.6-1.4s-0.2-1-0.6-1.4c-0.5-0.4-1.1-0.6-1.8-0.5h-1.9V146.7z"/>
		<path d="M199.5,152.1l3.3-10.5h1.4l3.3,10.5h-1.4l-0.8-2.6h-3.7l-0.8,2.6H199.5z M203.5,143.4l-1.5,5.1h3.1L203.5,143.4
			L203.5,143.4z"/>
		<path d="M210.4,152.1v-10.5h1.3v9.4h5.3v1.1H210.4z"/>
		<path d="M220.8,152.1V151h2.4v-8.3h-2.4v-1.1h6v1.1h-2.4v8.3h2.4v1.1H220.8z"/>
		<path d="M230.5,152.1v-1l5.4-8.3h-5.4v-1.1h6.8v1l-5.4,8.3h5.5v1.1H230.5z"/>
		<path d="M240.9,152.1v-10.5h6.6v1.1h-5.3v3.5h4.8v1.1h-4.8v3.6h5.3v1.1L240.9,152.1z"/>
		<path d="M250.7,152.1v-10.5h2.2c1.4-0.1,2.8,0.4,3.8,1.4c1.6,2.3,1.6,5.4,0,7.7c-1,1-2.4,1.5-3.8,1.4L250.7,152.1z M252,151h0.9
			c0.8,0,1.5-0.1,2.2-0.5c0.6-0.3,1-0.9,1.2-1.5c0.5-1.4,0.5-2.9,0-4.3c-0.2-0.6-0.7-1.1-1.2-1.4c-0.7-0.4-1.4-0.5-2.2-0.5H252V151z
			"/>
		<path d="M129.4,184.1V183h2.4v-8.3h-2.4v-1.1h6v1.1H133v8.3h2.4v1.1H129.4z"/>
		<path d="M138.9,184.1v-10.5h1.3l4.8,8.3v-8.3h1.2v10.5h-1.3l-4.8-8.3v8.3H138.9z"/>
		<path d="M152.1,184.1v-9.4h-2.8v-1.1h6.9v1.1h-2.8v9.4H152.1z"/>
		<path d="M159.6,184.1v-10.5h6.6v1.1h-5.3v3.5h4.8v1.1h-4.8v3.6h5.3v1.1L159.6,184.1z"/>
		<path d="M169.7,184.1v-10.5h3.2c0.7,0,1.4,0.1,2,0.4c0.5,0.2,0.9,0.6,1.2,1.1s0.4,1,0.4,1.6s-0.2,1.3-0.5,1.8
			c-0.4,0.5-1,0.9-1.6,1.1l2.3,4.5h-1.5l-2.1-4.3h-2v4.3L169.7,184.1z M171,178.7h1.9c0.6,0.1,1.3-0.1,1.8-0.5
			c0.4-0.4,0.6-0.9,0.6-1.4s-0.2-1-0.6-1.4c-0.5-0.4-1.1-0.6-1.8-0.5H171V178.7z"/>
		<path d="M179.5,184.1v-10.5h1.3l4.8,8.3v-8.3h1.2v10.5h-1.3l-4.8-8.3v8.3H179.5z"/>
		<path d="M190.1,184.1v-10.5h6.6v1.1h-5.3v3.5h4.9v1.1h-4.9v3.6h5.3v1.1L190.1,184.1z"/>
		<path d="M202.8,184.1v-9.4H200v-1.1h6.9v1.1h-2.8v9.4H202.8z"/>
		<path d="M142,32.3v18h-2.4l-0.3-2c-1,1.4-2.6,2.2-4.3,2.1c-1.1,0-2.2-0.3-3.2-0.8s-1.7-1.4-2.2-2.3c-0.5-1.1-0.8-2.3-0.8-3.6
			c0-1.2,0.3-2.4,0.8-3.5c0.5-1,1.3-1.8,2.2-2.4c1-0.6,2.1-0.9,3.2-0.8c0.9,0,1.7,0.2,2.5,0.5c0.7,0.3,1.3,0.9,1.7,1.5v-6.7H142z
			 M138.2,46.9c0.7-0.9,1.1-2,1-3.1c0.1-1.2-0.3-2.3-1-3.2c-1.4-1.5-3.8-1.6-5.3-0.2c-0.1,0.1-0.1,0.1-0.2,0.2c-0.7,0.9-1.1,2-1,3.2
			c-0.1,1.1,0.3,2.3,1,3.2c1.4,1.5,3.8,1.6,5.4,0.2C138.1,47,138.2,47,138.2,46.9L138.2,46.9z"/>
		<path d="M143.9,32.3h3.1l3.8,14.3l4-14.2h2.8l3.9,14.2l3.9-14.3h3l-5.1,18h-3.5l-3.7-13.2l-3.6,13.2H149L143.9,32.3z"/>
		<path d="M169.4,40.2c0.5-1,1.3-1.8,2.3-2.4c1-0.6,2.2-0.9,3.3-0.8c1.2,0,2.3,0.2,3.4,0.8c1,0.5,1.7,1.3,2.3,2.2
			c0.6,1,0.9,2.2,0.9,3.3c0,0.4,0,0.7-0.1,1.1h-9.9v0.2c0,1,0.4,2,1.1,2.7c0.7,0.7,1.6,1,2.6,1c0.8,0,1.5-0.2,2.2-0.6
			c0.6-0.4,1-1,1.2-1.7h2.8c-0.2,1.3-0.9,2.5-1.9,3.3c-1.1,0.9-2.5,1.3-3.9,1.3c-1.2,0-2.5-0.3-3.6-0.8c-1-0.5-1.9-1.4-2.4-2.4
			c-0.6-1.1-0.9-2.3-0.8-3.5C168.5,42.5,168.8,41.3,169.4,40.2z M178.6,42.3c-0.1-0.9-0.5-1.7-1.2-2.3s-1.5-0.8-2.4-0.8
			s-1.7,0.3-2.4,0.8c-0.7,0.6-1.1,1.4-1.1,2.2L178.6,42.3z"/>
		<path d="M193.9,37.8c0.9,0.5,1.7,1.4,2.2,2.3c0.6,1.1,0.8,2.4,0.8,3.6c0,1.2-0.2,2.4-0.8,3.5c-0.5,1-1.3,1.8-2.2,2.4
			c-1,0.6-2.1,0.9-3.2,0.8c-0.9,0-1.7-0.2-2.5-0.5c-0.7-0.4-1.3-0.9-1.8-1.5l-0.3,1.9h-2.4v-18h2.8v6.8c1-1.4,2.6-2.1,4.3-2.1
			C191.9,37,193,37.2,193.9,37.8z M193.1,46.9c0.7-0.9,1.1-2,1.1-3.2c0-1.1-0.3-2.3-1.1-3.2c-0.7-0.8-1.7-1.3-2.8-1.2
			c-1.1,0-2.1,0.4-2.8,1.2c-0.7,0.9-1.1,2-1.1,3.1c-0.1,1.2,0.3,2.3,1.1,3.2c0.7,0.8,1.7,1.3,2.8,1.2
			C191.3,48.1,192.4,47.7,193.1,46.9z"/>
		<path d="M129.5,63.2H141v2.6h-8.5V71h7v2.5h-7v7.6h-3V63.2z"/>
		<path d="M144.8,80.5c-1-0.5-1.8-1.4-2.4-2.4c-1.1-2.2-1.1-4.8,0-7c0.5-1,1.4-1.8,2.4-2.4c2.2-1.1,4.8-1.1,7,0
			c1,0.6,1.8,1.4,2.4,2.4c1.1,2.2,1.1,4.8,0,7c-0.5,1-1.4,1.8-2.4,2.4C149.5,81.6,146.9,81.6,144.8,80.5L144.8,80.5z M151.1,77.7
			c1.4-1.9,1.4-4.4,0-6.3c-1.5-1.6-3.9-1.6-5.4-0.2c-0.1,0.1-0.1,0.1-0.2,0.2c-1.4,1.9-1.4,4.4,0,6.3c1.5,1.6,3.9,1.6,5.4,0.2
			C151,77.8,151,77.8,151.1,77.7z"/>
		<path d="M169,68v13.1h-2.4l-0.3-1.7c-1,1.2-2.5,1.9-4.1,1.8c-1.4,0.1-2.8-0.5-3.8-1.4c-1-1-1.4-2.5-1.4-4.6V68h2.8v7
			c-0.1,1,0.2,2.1,0.8,2.9c0.6,0.7,1.4,1.1,2.3,1c1,0,1.9-0.4,2.5-1.2c0.6-0.9,1-2.1,0.9-3.2V68H169z"/>
		<path d="M182.5,69.3c1,1,1.5,2.5,1.5,4.6v7.2h-2.8V74c0.1-1-0.2-2-0.8-2.8c-0.6-0.7-1.4-1-2.3-1c-1,0-2,0.4-2.6,1.1
			c-0.7,0.9-1,2-0.9,3.2v6.6h-2.8V68h2.4l0.3,1.7c1-1.3,2.6-2,4.2-1.9C180.1,67.8,181.5,68.3,182.5,69.3z"/>
		<path d="M199.3,63.2v18h-2.4l-0.3-2c-1,1.4-2.6,2.2-4.3,2.1c-1.1,0-2.2-0.3-3.2-0.8c-0.9-0.5-1.7-1.4-2.2-2.3
			c-0.6-1.1-0.8-2.3-0.8-3.6c0-1.2,0.3-2.4,0.8-3.5c0.5-1,1.3-1.8,2.2-2.4c1-0.6,2.1-0.9,3.2-0.8c0.9,0,1.7,0.2,2.5,0.5
			c0.7,0.3,1.3,0.8,1.8,1.5v-6.6L199.3,63.2L199.3,63.2z M195.5,77.8c0.7-0.9,1.1-2,1.1-3.1c0.1-1.2-0.3-2.3-1.1-3.2
			c-1.4-1.5-3.8-1.6-5.3-0.2c-0.1,0.1-0.2,0.1-0.2,0.2c-1.4,1.9-1.4,4.4,0,6.3c0.7,0.8,1.7,1.3,2.8,1.3
			C193.8,79,194.8,78.6,195.5,77.8z"/>
		<path d="M214.6,78.7v2.4h-1.5c-0.7,0.1-1.3-0.1-1.9-0.5c-0.4-0.4-0.6-1-0.6-1.6c-0.9,1.5-2.6,2.3-4.3,2.3c-1.3,0.1-2.5-0.3-3.6-1
			c-0.9-0.7-1.4-1.7-1.3-2.8c-0.1-1.2,0.5-2.4,1.4-3.1c1.2-0.8,2.7-1.2,4.2-1.1h3.3v-0.8c0-0.7-0.3-1.3-0.8-1.7
			c-0.6-0.5-1.4-0.7-2.1-0.6c-0.7,0-1.4,0.2-2,0.5c-0.5,0.3-0.8,0.8-0.9,1.4h-2.7c0.1-1.2,0.7-2.4,1.8-3.1c1.2-0.8,2.6-1.2,4-1.1
			c1.5-0.1,2.9,0.3,4.1,1.2c1,0.9,1.5,2.2,1.4,3.5v5.2c0,0.6,0.3,0.9,0.9,0.9L214.6,78.7z M210.4,75.3H207c-0.7-0.1-1.4,0.1-2,0.5
			c-0.5,0.3-0.7,0.9-0.7,1.5c0,0.5,0.2,1,0.7,1.4s1.1,0.5,1.8,0.5c1,0.1,1.9-0.3,2.7-0.9c0.7-0.7,1-1.5,1-2.5L210.4,75.3z"/>
		<path d="M216.9,70.4h-2.3V68h2.3v-3.7h2.8V68h3.2v2.4h-3.2v6.9c0,0.4,0.1,0.8,0.3,1.1c0.3,0.2,0.7,0.4,1.1,0.3h2.1v2.4h-2.7
			c-1.7,0.3-3.3-0.9-3.6-2.6c-0.1-0.3-0.1-0.7,0-1L216.9,70.4L216.9,70.4z"/>
		<path d="M227.3,63.2c0.3,0.3,0.5,0.7,0.5,1.2c0,0.4-0.2,0.9-0.5,1.2c-0.7,0.6-1.7,0.6-2.4,0c-0.3-0.3-0.5-0.7-0.5-1.2
			c0-0.4,0.2-0.9,0.5-1.2C225.6,62.6,226.6,62.6,227.3,63.2z M224.7,68h2.8v13.1h-2.8V68z"/>
		<path d="M232.9,80.5c-1-0.5-1.8-1.4-2.4-2.4c-1.1-2.2-1.1-4.8,0-7c0.5-1,1.4-1.8,2.4-2.4c2.2-1.1,4.8-1.1,7,0
			c1,0.6,1.8,1.4,2.4,2.4c1.1,2.2,1.1,4.8,0,7c-0.5,1-1.4,1.8-2.4,2.4C237.7,81.6,235.1,81.6,232.9,80.5z M239.2,77.7
			c1.4-1.9,1.4-4.4,0-6.3c-0.7-0.8-1.7-1.3-2.8-1.2c-1.1,0-2.1,0.4-2.8,1.2c-1.4,1.9-1.4,4.4,0,6.3c0.7,0.8,1.7,1.3,2.8,1.2
			C237.5,79,238.5,78.5,239.2,77.7L239.2,77.7z"/>
		<path d="M256.1,69.3c1,1,1.5,2.5,1.5,4.6v7.2h-2.8V74c0.1-1-0.2-2-0.8-2.8c-0.6-0.7-1.4-1.1-2.3-1c-1,0-1.9,0.4-2.6,1.1
			c-0.7,0.9-1,2-0.9,3.2v6.6h-2.8V68h2.4l0.3,1.7c1-1.3,2.6-2,4.2-1.9C253.7,67.8,255.1,68.3,256.1,69.3z"/>
		<g>
			<path d="M99.8,78.1l2.4,4.4l2.2-1.2l0,0c0.8-0.4,1.3-1.3,1.3-2.2v-2.5h-5L99.8,78.1z"/>
			<rect x="100.7" y="62.4" width="5" height="5"/>
			<rect x="100.7" y="48.3" width="5" height="5"/>
			<path d="M104.5,34.5l-2.1-1.3l-2.6,4.3l1,1.7h5v-2.5l0,0C105.7,35.8,105.2,35,104.5,34.5z"/>
			<polygon points="75.3,23.5 77.8,19.1 82.1,21.7 79.6,26 			"/>
			<polygon points="87.5,30.5 90,26.2 94.4,28.7 91.9,33 			"/>
			<path d="M67.7,13.3c-0.8-0.4-1.7-0.4-2.4,0l-2.2,1.2l2.4,4.4h2l2.4-4.4L67.7,13.3L67.7,13.3z"/>
			<polygon points="38.6,28.7 42.9,26.2 45.4,30.5 41.1,33 			"/>
			<polygon points="50.8,21.7 55.2,19.1 57.7,23.5 53.3,26 			"/>
			<path d="M28.6,34.5L28.6,34.5c-0.8,0.4-1.3,1.3-1.3,2.2v2.5h5l0.9-1.5l-2.4-4.4L28.6,34.5z"/>
			<rect x="27.3" y="48.3" width="5" height="5"/>
			<rect x="27.3" y="62.4" width="5" height="5"/>
			<path d="M32.3,76.6h-5v2.5l0,0c0,1,0.5,1.8,1.4,2.2l2.3,1.1l2.2-4.4L32.3,76.6z"/>
			<polygon points="50.8,94.1 53.3,89.8 57.7,92.3 55.2,96.6 			"/>
			<polygon points="38.6,87 41.1,82.7 45.4,85.2 42.9,89.5 			"/>
			<path d="M65.5,96.8l-2.4,4.4l2.2,1.2l0,0c0.8,0.4,1.7,0.4,2.4,0l2.2-1.2l-2.4-4.4H65.5z"/>
			<polygon points="87.5,85.2 91.9,82.7 94.4,87 90,89.5 			"/>
			<polygon points="75.3,92.3 79.6,89.8 82.1,94.1 77.8,96.6 			"/>
			<path d="M89.6,72.4l2.6,4.3l2.1-1.3l0,0c0.7-0.5,1.2-1.3,1.2-2.1v-2.5h-5L89.6,72.4z"/>
			<rect x="90.6" y="55.4" width="5" height="5"/>
			<path d="M94.3,40.3l-2.2-1.2l-2.4,4.4l0.9,1.5h5v-2.5l0,0C95.6,41.6,95.1,40.8,94.3,40.3z"/>
			<polygon points="76.4,35.5 78.9,31.2 83.3,33.7 80.8,38 			"/>
			<path d="M67.7,25c-0.7-0.4-1.7-0.4-2.4,0l-2.2,1.2l2.4,4.4h2l2.4-4.4L67.7,25L67.7,25z"/>
			<polygon points="49.7,33.9 54.1,31.4 56.6,35.7 52.2,38.2 			"/>
			<path d="M43.3,43.5l-2.4-4.4l-2.2,1.2l0,0c-0.8,0.4-1.3,1.3-1.3,2.2V45h5L43.3,43.5z"/>
			<rect x="37.4" y="55.4" width="5" height="5"/>
			<path d="M43.3,72.4l-0.9-1.7h-5v2.5l0,0c0,0.9,0.4,1.7,1.2,2.1l2.1,1.3L43.3,72.4z"/>
			<polygon points="49.7,81.8 52.2,77.5 56.6,80 54.1,84.3 			"/>
			<path d="M65.5,85.2l-2.4,4.4l2.2,1.2l0,0c0.8,0.4,1.7,0.4,2.4,0l2.2-1.2l-2.4-4.4H65.5z"/>
			<polygon points="76.4,80 80.7,77.5 83.2,81.8 78.9,84.3 			"/>
			<path d="M79.6,66.4l2.4,4.4l2.2-1.2l0,0c0.8-0.4,1.3-1.3,1.3-2.2v-2.5h-5L79.6,66.4z"/>
			<path d="M85.5,48.3c0-0.9-0.5-1.7-1.3-2.2L82,44.9l-2.4,4.4l0.9,1.5h5V48.3L85.5,48.3z"/>
			<path d="M67.7,36.6c-0.8-0.4-1.7-0.4-2.4,0l-2.2,1.2l2.4,4.4h2l2.4-4.4L67.7,36.6L67.7,36.6z"/>
			<path d="M53.4,49.1l-2.7-4.2l-2.1,1.3l0,0c-0.7,0.5-1.2,1.3-1.2,2.1v2.5h5L53.4,49.1z"/>
			<path d="M53.4,66.6l-1-1.7h-5v2.5l0,0c0,0.9,0.4,1.7,1.2,2.1l2.1,1.3L53.4,66.6z"/>
			<path d="M65.5,73.6L63.1,78l2.2,1.2l0,0c0.8,0.4,1.7,0.4,2.4,0l2.2-1.2l-2.4-4.4H65.5z"/>
		</g>
	</g>
</g>
<g id="Layer_2_3_">
	<g id="Layer_1-2_3_">
		<path d="M-182.6,120.1v-10.5h6.6v1.2h-5.3v3.7h4.5v1.1h-4.5v4.5L-182.6,120.1z"/>
		<path d="M-169.4,120.3c-0.8,0-1.6-0.2-2.2-0.7c-0.6-0.5-1.1-1.1-1.4-1.9c-0.7-1.9-0.7-3.9,0-5.7c0.3-0.8,0.8-1.4,1.4-1.9
			c1.3-0.9,3.1-0.9,4.4,0c0.6,0.5,1.1,1.1,1.4,1.9c0.7,1.9,0.7,3.9,0,5.7c-0.3,0.8-0.8,1.4-1.4,1.9
			C-167.8,120.1-168.6,120.3-169.4,120.3z M-169.4,119.1c0.8,0,1.6-0.4,2-1.1c1-2,1-4.3,0-6.3c-0.7-1.1-2.2-1.4-3.3-0.7
			c-0.3,0.2-0.5,0.4-0.7,0.7c-1,2-1,4.3,0,6.3C-170.9,118.7-170.2,119.1-169.4,119.1z"/>
		<path d="M-162.5,120.1v-10.5h3.2c0.7,0,1.4,0.1,2,0.4c0.5,0.2,0.9,0.6,1.2,1.1s0.4,1,0.4,1.6s-0.2,1.3-0.5,1.8
			c-0.4,0.5-1,0.9-1.6,1.1l2.3,4.5h-1.5l-2.1-4.3h-2v4.3H-162.5z M-161.2,114.7h1.9c0.6,0.1,1.3-0.1,1.8-0.5
			c0.4-0.4,0.6-0.9,0.6-1.4s-0.2-1.1-0.6-1.4c-0.5-0.4-1.1-0.6-1.8-0.5h-1.9V114.7z"/>
		<path d="M-142.9,120.1l3.3-10.5h1.5l3.3,10.5h-1.4l-0.8-2.6h-3.7l-0.8,2.6H-142.9z M-138.9,111.4l-1.5,5.1h3.1L-138.9,111.4
			L-138.9,111.4z"/>
		<path d="M-183,152.1v-10.5h2.2c1.4-0.1,2.8,0.4,3.8,1.4c1.6,2.3,1.6,5.4,0,7.7c-1,1-2.4,1.5-3.8,1.4L-183,152.1L-183,152.1z
			 M-181.8,151h0.9c0.8,0,1.5-0.1,2.2-0.5c0.5-0.3,1-0.8,1.2-1.4c0.5-1.4,0.5-2.9,0-4.3c-0.2-0.6-0.7-1.1-1.2-1.4
			c-0.7-0.4-1.4-0.5-2.2-0.5h-0.9V151z"/>
		<path d="M-172.5,152.1v-10.5h6.6v1.1h-5.3v3.5h4.8v1.1h-4.8v3.6h5.3v1.1L-172.5,152.1z"/>
		<path d="M-159.1,152.3c-0.8,0-1.6-0.2-2.2-0.7c-0.6-0.5-1.1-1.1-1.4-1.9c-0.7-1.9-0.7-3.9,0-5.7c0.3-0.7,0.8-1.4,1.4-1.9
			c0.6-0.5,1.4-0.7,2.2-0.7c1,0,1.9,0.3,2.6,0.9c0.7,0.6,1.1,1.5,1.1,2.4h-1.4c-0.1-0.6-0.3-1.1-0.8-1.5c-0.4-0.4-1-0.6-1.6-0.6
			c-0.8,0-1.6,0.4-2.1,1.1c-1,2-1,4.3,0,6.2c0.4,0.7,1.2,1.1,2.1,1.1c0.6,0,1.2-0.2,1.6-0.6c0.4-0.4,0.7-0.9,0.7-1.5h1.4
			c-0.1,0.9-0.5,1.7-1.2,2.4C-157.3,152.1-158.2,152.4-159.1,152.3z"/>
		<path d="M-152.3,152.1v-10.5h6.6v1.1h-5.3v3.5h4.8v1.1h-4.8v3.6h5.3v1.1L-152.3,152.1z"/>
		<path d="M-142.5,152.1v-10.5h1.3l4.8,8.3v-8.3h1.2v10.5h-1.3l-4.8-8.3v8.3H-142.5z"/>
		<path d="M-129.4,152.1v-9.4h-2.8v-1.1h6.9v1.1h-2.8v9.4H-129.4z"/>
		<path d="M-121.9,152.1v-10.5h3.2c0.7,0,1.4,0.1,2,0.4c0.5,0.2,0.9,0.6,1.2,1.1s0.4,1,0.4,1.6s-0.2,1.3-0.5,1.8
			c-0.4,0.5-1,0.9-1.6,1.1l2.3,4.5h-1.5l-2.1-4.3h-2v4.3L-121.9,152.1z M-120.6,146.7h1.9c0.6,0.1,1.3-0.1,1.8-0.5
			c0.4-0.4,0.6-0.9,0.6-1.4s-0.2-1-0.6-1.4c-0.5-0.4-1.1-0.6-1.8-0.5h-1.9V146.7z"/>
		<path d="M-112.4,152.1l3.3-10.5h1.4l3.3,10.5h-1.4l-0.8-2.6h-3.7l-0.8,2.6H-112.4z M-108.4,143.4l-1.5,5.1h3.1L-108.4,143.4
			L-108.4,143.4z"/>
		<path d="M-101.5,152.1v-10.5h1.3v9.4h5.3v1.1H-101.5z"/>
		<path d="M-91.1,152.1V151h2.4v-8.3h-2.4v-1.1h6v1.1h-2.4v8.3h2.4v1.1H-91.1z"/>
		<path d="M-81.4,152.1v-1l5.4-8.3h-5.4v-1.1h6.8v1L-80,151h5.5v1.1H-81.4z"/>
		<path d="M-71,152.1v-10.5h6.6v1.1h-5.3v3.5h4.8v1.1h-4.8v3.6h5.3v1.1L-71,152.1z"/>
		<path d="M-61.2,152.1v-10.5h2.2c1.4-0.1,2.8,0.4,3.8,1.4c1.6,2.3,1.6,5.4,0,7.7c-1,1-2.4,1.5-3.8,1.4L-61.2,152.1z M-59.9,151h0.9
			c0.8,0,1.5-0.1,2.2-0.5c0.6-0.3,1-0.9,1.2-1.5c0.5-1.4,0.5-2.9,0-4.3c-0.2-0.6-0.7-1.1-1.2-1.4c-0.7-0.4-1.4-0.5-2.2-0.5h-0.9V151
			z"/>
		<path d="M-182.5,184.1V183h2.4v-8.3h-2.4v-1.1h6v1.1h-2.4v8.3h2.4v1.1H-182.5z"/>
		<path d="M-173,184.1v-10.5h1.3l4.8,8.3v-8.3h1.2v10.5h-1.3l-4.8-8.3v8.3H-173z"/>
		<path d="M-159.8,184.1v-9.4h-2.8v-1.1h6.9v1.1h-2.8v9.4H-159.8z"/>
		<path d="M-152.3,184.1v-10.5h6.6v1.1h-5.3v3.5h4.8v1.1h-4.8v3.6h5.3v1.1L-152.3,184.1z"/>
		<path d="M-142.2,184.1v-10.5h3.2c0.7,0,1.4,0.1,2,0.4c0.5,0.2,0.9,0.6,1.2,1.1s0.4,1,0.4,1.6s-0.2,1.3-0.5,1.8
			c-0.4,0.5-1,0.9-1.6,1.1l2.3,4.5h-1.5l-2.1-4.3h-2v4.3L-142.2,184.1z M-140.9,178.7h1.9c0.6,0.1,1.3-0.1,1.8-0.5
			c0.4-0.4,0.6-0.9,0.6-1.4s-0.2-1-0.6-1.4c-0.5-0.4-1.1-0.6-1.8-0.5h-1.9V178.7z"/>
		<path d="M-132.4,184.1v-10.5h1.3l4.8,8.3v-8.3h1.2v10.5h-1.3l-4.8-8.3v8.3H-132.4z"/>
		<path d="M-121.8,184.1v-10.5h6.6v1.1h-5.3v3.5h4.9v1.1h-4.9v3.6h5.3v1.1L-121.8,184.1z"/>
		<path d="M-109.1,184.1v-9.4h-2.8v-1.1h6.9v1.1h-2.8v9.4H-109.1z"/>
		<path d="M-169.9,32.3v18h-2.4l-0.3-2c-1,1.4-2.6,2.2-4.3,2.1c-1.1,0-2.2-0.3-3.2-0.8s-1.7-1.4-2.2-2.3c-0.5-1.1-0.8-2.3-0.8-3.6
			c0-1.2,0.3-2.4,0.8-3.5c0.5-1,1.3-1.8,2.2-2.4c1-0.6,2.1-0.9,3.2-0.8c0.9,0,1.7,0.2,2.5,0.5c0.7,0.3,1.3,0.9,1.7,1.5v-6.7H-169.9z
			 M-173.7,46.9c0.7-0.9,1.1-2,1-3.1c0.1-1.2-0.3-2.3-1-3.2c-1.4-1.5-3.8-1.6-5.3-0.2c-0.1,0.1-0.1,0.1-0.2,0.2
			c-0.7,0.9-1.1,2-1,3.2c-0.1,1.1,0.3,2.3,1,3.2c1.4,1.5,3.8,1.6,5.4,0.2C-173.8,47-173.7,47-173.7,46.9L-173.7,46.9z"/>
		<path d="M-168,32.3h3.1l3.8,14.3l4-14.2h2.8l3.9,14.2l3.9-14.3h3l-5.1,18h-3.5l-3.7-13.2l-3.6,13.2h-3.5L-168,32.3z"/>
		<path d="M-142.5,40.2c0.5-1,1.3-1.8,2.3-2.4c1-0.6,2.2-0.9,3.3-0.8c1.2,0,2.3,0.2,3.4,0.8c1,0.5,1.7,1.3,2.3,2.2
			c0.6,1,0.9,2.2,0.9,3.3c0,0.4,0,0.7-0.1,1.1h-9.9v0.2c0,1,0.4,2,1.1,2.7c0.7,0.7,1.6,1,2.6,1c0.8,0,1.5-0.2,2.2-0.6
			c0.6-0.4,1-1,1.2-1.7h2.8c-0.2,1.3-0.9,2.5-1.9,3.3c-1.1,0.9-2.5,1.3-3.9,1.3c-1.2,0-2.5-0.3-3.6-0.8c-1-0.5-1.9-1.4-2.4-2.4
			c-0.6-1.1-0.9-2.3-0.8-3.5C-143.4,42.5-143.1,41.3-142.5,40.2z M-133.3,42.3c-0.1-0.9-0.5-1.7-1.2-2.3s-1.5-0.8-2.4-0.8
			s-1.7,0.3-2.4,0.8c-0.7,0.6-1.1,1.4-1.1,2.2L-133.3,42.3z"/>
		<path d="M-118,37.8c0.9,0.5,1.7,1.4,2.2,2.3c0.6,1.1,0.8,2.4,0.8,3.6c0,1.2-0.2,2.4-0.8,3.5c-0.5,1-1.3,1.8-2.2,2.4
			c-1,0.6-2.1,0.9-3.2,0.8c-0.9,0-1.7-0.2-2.5-0.5c-0.7-0.4-1.3-0.9-1.8-1.5l-0.3,1.9h-2.4v-18h2.8v6.8c1-1.4,2.6-2.1,4.3-2.1
			C-120,37-118.9,37.2-118,37.8z M-118.8,46.9c0.7-0.9,1.1-2,1.1-3.2c0-1.1-0.3-2.3-1.1-3.2c-0.7-0.8-1.7-1.3-2.8-1.2
			c-1.1,0-2.1,0.4-2.8,1.2c-0.7,0.9-1.1,2-1.1,3.1c-0.1,1.2,0.3,2.3,1.1,3.2c0.7,0.8,1.7,1.3,2.8,1.2
			C-120.6,48.1-119.5,47.7-118.8,46.9z"/>
		<path d="M-182.4,63.2h11.5v2.6h-8.5V71h7v2.5h-7v7.6h-3V63.2z"/>
		<path d="M-167.1,80.5c-1-0.5-1.8-1.4-2.4-2.4c-1.1-2.2-1.1-4.8,0-7c0.5-1,1.4-1.8,2.4-2.4c2.2-1.1,4.8-1.1,7,0
			c1,0.6,1.8,1.4,2.4,2.4c1.1,2.2,1.1,4.8,0,7c-0.5,1-1.4,1.8-2.4,2.4C-162.4,81.6-165,81.6-167.1,80.5L-167.1,80.5z M-160.8,77.7
			c1.4-1.9,1.4-4.4,0-6.3c-1.5-1.6-3.9-1.6-5.4-0.2c-0.1,0.1-0.1,0.1-0.2,0.2c-1.4,1.9-1.4,4.4,0,6.3c1.5,1.6,3.9,1.6,5.4,0.2
			C-160.9,77.8-160.9,77.8-160.8,77.7z"/>
		<path d="M-142.9,68v13.1h-2.4l-0.3-1.7c-1,1.2-2.5,1.9-4.1,1.8c-1.4,0.1-2.8-0.5-3.8-1.4c-1-1-1.4-2.5-1.4-4.6V68h2.8v7
			c-0.1,1,0.2,2.1,0.8,2.9c0.6,0.7,1.4,1.1,2.3,1c1,0,1.9-0.4,2.5-1.2c0.6-0.9,1-2.1,0.9-3.2V68H-142.9z"/>
		<path d="M-129.4,69.3c1,1,1.5,2.5,1.5,4.6v7.2h-2.8V74c0.1-1-0.2-2-0.8-2.8c-0.6-0.7-1.4-1-2.3-1c-1,0-2,0.4-2.6,1.1
			c-0.7,0.9-1,2-0.9,3.2v6.6h-2.8V68h2.4l0.3,1.7c1-1.3,2.6-2,4.2-1.9C-131.8,67.8-130.4,68.3-129.4,69.3z"/>
		<path d="M-112.6,63.2v18h-2.4l-0.3-2c-1,1.4-2.6,2.2-4.3,2.1c-1.1,0-2.2-0.3-3.2-0.8c-0.9-0.5-1.7-1.4-2.2-2.3
			c-0.6-1.1-0.8-2.3-0.8-3.6c0-1.2,0.3-2.4,0.8-3.5c0.5-1,1.3-1.8,2.2-2.4c1-0.6,2.1-0.9,3.2-0.8c0.9,0,1.7,0.2,2.5,0.5
			c0.7,0.3,1.3,0.8,1.8,1.5v-6.6L-112.6,63.2L-112.6,63.2z M-116.4,77.8c0.7-0.9,1.1-2,1.1-3.1c0.1-1.2-0.3-2.3-1.1-3.2
			c-1.4-1.5-3.8-1.6-5.3-0.2c-0.1,0.1-0.2,0.1-0.2,0.2c-1.4,1.9-1.4,4.4,0,6.3c0.7,0.8,1.7,1.3,2.8,1.3
			C-118.1,79-117.1,78.6-116.4,77.8z"/>
		<path d="M-97.3,78.7v2.4h-1.5c-0.7,0.1-1.3-0.1-1.9-0.5c-0.4-0.4-0.6-1-0.6-1.6c-0.9,1.5-2.6,2.3-4.3,2.3c-1.3,0.1-2.5-0.3-3.6-1
			c-0.9-0.7-1.4-1.7-1.3-2.8c-0.1-1.2,0.5-2.4,1.4-3.1c1.2-0.8,2.7-1.2,4.2-1.1h3.3v-0.8c0-0.7-0.3-1.3-0.8-1.7
			c-0.6-0.5-1.4-0.7-2.1-0.6c-0.7,0-1.4,0.2-2,0.5c-0.5,0.3-0.8,0.8-0.9,1.4h-2.7c0.1-1.2,0.7-2.4,1.8-3.1c1.2-0.8,2.6-1.2,4-1.1
			c1.5-0.1,2.9,0.3,4.1,1.2c1,0.9,1.5,2.2,1.4,3.5v5.2c0,0.6,0.3,0.9,0.9,0.9L-97.3,78.7z M-101.5,75.3h-3.4c-0.7-0.1-1.4,0.1-2,0.5
			c-0.5,0.3-0.7,0.9-0.7,1.5c0,0.5,0.2,1,0.7,1.4s1.1,0.5,1.8,0.5c1,0.1,1.9-0.3,2.7-0.9c0.7-0.7,1-1.5,1-2.5L-101.5,75.3z"/>
		<path d="M-95,70.4h-2.3V68h2.3v-3.7h2.8V68h3.2v2.4h-3.2v6.9c0,0.4,0.1,0.8,0.3,1.1c0.3,0.2,0.7,0.4,1.1,0.3h2.1v2.4h-2.7
			c-1.7,0.3-3.3-0.9-3.6-2.6c-0.1-0.3-0.1-0.7,0-1L-95,70.4L-95,70.4z"/>
		<path d="M-84.6,63.2c0.3,0.3,0.5,0.7,0.5,1.2c0,0.4-0.2,0.9-0.5,1.2c-0.7,0.6-1.7,0.6-2.4,0c-0.3-0.3-0.5-0.7-0.5-1.2
			c0-0.4,0.2-0.9,0.5-1.2C-86.3,62.6-85.3,62.6-84.6,63.2z M-87.2,68h2.8v13.1h-2.8V68z"/>
		<path d="M-79,80.5c-1-0.5-1.8-1.4-2.4-2.4c-1.1-2.2-1.1-4.8,0-7c0.5-1,1.4-1.8,2.4-2.4c2.2-1.1,4.8-1.1,7,0c1,0.6,1.8,1.4,2.4,2.4
			c1.1,2.2,1.1,4.8,0,7c-0.5,1-1.4,1.8-2.4,2.4C-74.2,81.6-76.8,81.6-79,80.5z M-72.7,77.7c1.4-1.9,1.4-4.4,0-6.3
			c-0.7-0.8-1.7-1.3-2.8-1.2c-1.1,0-2.1,0.4-2.8,1.2c-1.4,1.9-1.4,4.4,0,6.3c0.7,0.8,1.7,1.3,2.8,1.2C-74.4,79-73.4,78.5-72.7,77.7
			L-72.7,77.7z"/>
		<path d="M-55.8,69.3c1,1,1.5,2.5,1.5,4.6v7.2h-2.8V74c0.1-1-0.2-2-0.8-2.8c-0.6-0.7-1.4-1.1-2.3-1c-1,0-1.9,0.4-2.6,1.1
			c-0.7,0.9-1,2-0.9,3.2v6.6h-2.8V68h2.4l0.3,1.7c1-1.3,2.6-2,4.2-1.9C-58.2,67.8-56.8,68.3-55.8,69.3z"/>
		<g>
			
				<linearGradient id="SVGID_1_" gradientUnits="userSpaceOnUse" x1="-241.9297" y1="705.3882" x2="-197.7197" y2="658.8682" gradientTransform="matrix(1 0 0 1 0 -592)">
				<stop  offset="0" style="stop-color:#3A3A3A"/>
				<stop  offset="0.14" style="stop-color:#3A3A3A"/>
				<stop  offset="0.25" style="stop-color:#383838"/>
				<stop  offset="0.34" style="stop-color:#343434"/>
				<stop  offset="0.43" style="stop-color:#303030"/>
				<stop  offset="0.46" style="stop-color:#2E2E2E"/>
				<stop  offset="0.9" style="stop-color:#464646"/>
			</linearGradient>
			<path class="st0" d="M-212,78.1l2.4,4.4l2.2-1.2l0,0c0.8-0.4,1.3-1.3,1.3-2.2v-2.5h-5L-212,78.1z"/>
			
				<linearGradient id="SVGID_2_" gradientUnits="userSpaceOnUse" x1="-248.6446" y1="698.9955" x2="-204.4446" y2="652.4855" gradientTransform="matrix(1 0 0 1 0 -592)">
				<stop  offset="0" style="stop-color:#3A3A3A"/>
				<stop  offset="0.14" style="stop-color:#3A3A3A"/>
				<stop  offset="0.25" style="stop-color:#383838"/>
				<stop  offset="0.34" style="stop-color:#343434"/>
				<stop  offset="0.43" style="stop-color:#303030"/>
				<stop  offset="0.46" style="stop-color:#2E2E2E"/>
				<stop  offset="0.9" style="stop-color:#464646"/>
			</linearGradient>
			<rect x="-211.1" y="62.4" class="st1" width="5" height="5"/>
			
				<linearGradient id="SVGID_3_" gradientUnits="userSpaceOnUse" x1="-255.6957" y1="692.3039" x2="-211.4857" y2="645.7939" gradientTransform="matrix(1 0 0 1 0 -592)">
				<stop  offset="0" style="stop-color:#3A3A3A"/>
				<stop  offset="0.14" style="stop-color:#3A3A3A"/>
				<stop  offset="0.25" style="stop-color:#383838"/>
				<stop  offset="0.34" style="stop-color:#343434"/>
				<stop  offset="0.43" style="stop-color:#303030"/>
				<stop  offset="0.46" style="stop-color:#2E2E2E"/>
				<stop  offset="0.9" style="stop-color:#464646"/>
			</linearGradient>
			<rect x="-211.1" y="48.3" class="st2" width="5" height="5"/>
			
				<linearGradient id="SVGID_4_" gradientUnits="userSpaceOnUse" x1="-262.5141" y1="685.8239" x2="-218.3041" y2="639.3139" gradientTransform="matrix(1 0 0 1 0 -592)">
				<stop  offset="0" style="stop-color:#3A3A3A"/>
				<stop  offset="0.14" style="stop-color:#3A3A3A"/>
				<stop  offset="0.25" style="stop-color:#383838"/>
				<stop  offset="0.34" style="stop-color:#343434"/>
				<stop  offset="0.43" style="stop-color:#303030"/>
				<stop  offset="0.46" style="stop-color:#2E2E2E"/>
				<stop  offset="0.9" style="stop-color:#464646"/>
			</linearGradient>
			<path class="st3" d="M-207.3,34.5l-2.1-1.3l-2.6,4.3l1,1.7h5v-2.5l0,0C-206.1,35.8-206.6,35-207.3,34.5z"/>
			
				<linearGradient id="SVGID_5_" gradientUnits="userSpaceOnUse" x1="-282.6664" y1="666.6738" x2="-238.4664" y2="620.1538" gradientTransform="matrix(1 0 0 1 6.832551e-03 -592.0049)">
				<stop  offset="0" style="stop-color:#3A3A3A"/>
				<stop  offset="0.14" style="stop-color:#3A3A3A"/>
				<stop  offset="0.25" style="stop-color:#383838"/>
				<stop  offset="0.34" style="stop-color:#343434"/>
				<stop  offset="0.43" style="stop-color:#303030"/>
				<stop  offset="0.46" style="stop-color:#2E2E2E"/>
				<stop  offset="0.9" style="stop-color:#464646"/>
			</linearGradient>
			<polygon class="st4" points="-236.5,23.5 -234,19.1 -229.7,21.7 -232.2,26 			"/>
			
				<linearGradient id="SVGID_6_" gradientUnits="userSpaceOnUse" x1="-272.7148" y1="676.1353" x2="-228.5048" y2="629.6153" gradientTransform="matrix(1 0 0 1 -9.702119e-04 -592.0014)">
				<stop  offset="0" style="stop-color:#3A3A3A"/>
				<stop  offset="0.14" style="stop-color:#3A3A3A"/>
				<stop  offset="0.25" style="stop-color:#383838"/>
				<stop  offset="0.34" style="stop-color:#343434"/>
				<stop  offset="0.43" style="stop-color:#303030"/>
				<stop  offset="0.46" style="stop-color:#2E2E2E"/>
				<stop  offset="0.9" style="stop-color:#464646"/>
			</linearGradient>
			<polygon class="st5" points="-224.3,30.5 -221.8,26.2 -217.4,28.7 -219.9,33 			"/>
			
				<linearGradient id="SVGID_7_" gradientUnits="userSpaceOnUse" x1="-292.6352" y1="657.2039" x2="-248.4252" y2="610.6839" gradientTransform="matrix(1 0 0 1 0 -592)">
				<stop  offset="0" style="stop-color:#3A3A3A"/>
				<stop  offset="0.14" style="stop-color:#3A3A3A"/>
				<stop  offset="0.25" style="stop-color:#383838"/>
				<stop  offset="0.34" style="stop-color:#343434"/>
				<stop  offset="0.43" style="stop-color:#303030"/>
				<stop  offset="0.46" style="stop-color:#2E2E2E"/>
				<stop  offset="0.9" style="stop-color:#464646"/>
			</linearGradient>
			<path class="st6" d="M-244.1,13.3c-0.8-0.4-1.7-0.4-2.4,0l-2.2,1.2l2.4,4.4h2l2.4-4.4L-244.1,13.3L-244.1,13.3z"/>
			
				<linearGradient id="SVGID_8_" gradientUnits="userSpaceOnUse" x1="-298.4306" y1="651.6899" x2="-254.2306" y2="605.1799" gradientTransform="matrix(1 0 0 1 1.401126e-03 -592.0064)">
				<stop  offset="0" style="stop-color:#3A3A3A"/>
				<stop  offset="0.14" style="stop-color:#3A3A3A"/>
				<stop  offset="0.25" style="stop-color:#383838"/>
				<stop  offset="0.34" style="stop-color:#343434"/>
				<stop  offset="0.43" style="stop-color:#303030"/>
				<stop  offset="0.46" style="stop-color:#2E2E2E"/>
				<stop  offset="0.9" style="stop-color:#464646"/>
			</linearGradient>
			<polygon class="st7" points="-273.2,28.7 -268.9,26.2 -266.4,30.5 -270.7,33 			"/>
			
				<linearGradient id="SVGID_9_" gradientUnits="userSpaceOnUse" x1="-295.4966" y1="654.4821" x2="-251.2866" y2="607.9622" gradientTransform="matrix(1 0 0 1 -4.046557e-03 -591.9905)">
				<stop  offset="0" style="stop-color:#3A3A3A"/>
				<stop  offset="0.14" style="stop-color:#3A3A3A"/>
				<stop  offset="0.25" style="stop-color:#383838"/>
				<stop  offset="0.34" style="stop-color:#343434"/>
				<stop  offset="0.43" style="stop-color:#303030"/>
				<stop  offset="0.46" style="stop-color:#2E2E2E"/>
				<stop  offset="0.9" style="stop-color:#464646"/>
			</linearGradient>
			<polygon class="st8" points="-261,21.7 -256.6,19.1 -254.1,23.5 -258.5,26 			"/>
			
				<linearGradient id="SVGID_10_" gradientUnits="userSpaceOnUse" x1="-300.9254" y1="649.3137" x2="-256.7254" y2="602.8037" gradientTransform="matrix(1 0 0 1 0 -592)">
				<stop  offset="0" style="stop-color:#3A3A3A"/>
				<stop  offset="0.14" style="stop-color:#3A3A3A"/>
				<stop  offset="0.25" style="stop-color:#383838"/>
				<stop  offset="0.34" style="stop-color:#343434"/>
				<stop  offset="0.43" style="stop-color:#303030"/>
				<stop  offset="0.46" style="stop-color:#2E2E2E"/>
				<stop  offset="0.9" style="stop-color:#464646"/>
			</linearGradient>
			<path class="st9" d="M-283.2,34.5L-283.2,34.5c-0.8,0.4-1.3,1.3-1.3,2.2v2.5h5l0.9-1.5l-2.4-4.4L-283.2,34.5z"/>
			
				<linearGradient id="SVGID_11_" gradientUnits="userSpaceOnUse" x1="-294.2542" y1="655.6554" x2="-250.0541" y2="609.1354" gradientTransform="matrix(1 0 0 1 0 -592)">
				<stop  offset="0" style="stop-color:#3A3A3A"/>
				<stop  offset="0.14" style="stop-color:#3A3A3A"/>
				<stop  offset="0.25" style="stop-color:#383838"/>
				<stop  offset="0.34" style="stop-color:#343434"/>
				<stop  offset="0.43" style="stop-color:#303030"/>
				<stop  offset="0.46" style="stop-color:#2E2E2E"/>
				<stop  offset="0.9" style="stop-color:#464646"/>
			</linearGradient>
			<rect x="-284.5" y="48.3" class="st10" width="5" height="5"/>
			
				<linearGradient id="SVGID_12_" gradientUnits="userSpaceOnUse" x1="-287.2147" y1="662.3453" x2="-243.0147" y2="615.8354" gradientTransform="matrix(1 0 0 1 0 -592)">
				<stop  offset="0" style="stop-color:#3A3A3A"/>
				<stop  offset="0.14" style="stop-color:#3A3A3A"/>
				<stop  offset="0.25" style="stop-color:#383838"/>
				<stop  offset="0.34" style="stop-color:#343434"/>
				<stop  offset="0.43" style="stop-color:#303030"/>
				<stop  offset="0.46" style="stop-color:#2E2E2E"/>
				<stop  offset="0.9" style="stop-color:#464646"/>
			</linearGradient>
			<rect x="-284.5" y="62.4" class="st11" width="5" height="5"/>
			
				<linearGradient id="SVGID_13_" gradientUnits="userSpaceOnUse" x1="-280.2668" y1="668.9509" x2="-236.0568" y2="622.4409" gradientTransform="matrix(1 0 0 1 0 -592)">
				<stop  offset="0" style="stop-color:#3A3A3A"/>
				<stop  offset="0.14" style="stop-color:#3A3A3A"/>
				<stop  offset="0.25" style="stop-color:#383838"/>
				<stop  offset="0.34" style="stop-color:#343434"/>
				<stop  offset="0.43" style="stop-color:#303030"/>
				<stop  offset="0.46" style="stop-color:#2E2E2E"/>
				<stop  offset="0.9" style="stop-color:#464646"/>
			</linearGradient>
			<path class="st12" d="M-279.5,76.6h-5v2.5l0,0c0,1,0.5,1.8,1.4,2.2l2.3,1.1l2.2-4.4L-279.5,76.6z"/>
			
				<linearGradient id="SVGID_14_" gradientUnits="userSpaceOnUse" x1="-260.2368" y1="687.9824" x2="-216.0368" y2="641.4724" gradientTransform="matrix(1 0 0 1 2.265869e-03 -591.9995)">
				<stop  offset="0" style="stop-color:#3A3A3A"/>
				<stop  offset="0.14" style="stop-color:#3A3A3A"/>
				<stop  offset="0.25" style="stop-color:#383838"/>
				<stop  offset="0.34" style="stop-color:#343434"/>
				<stop  offset="0.43" style="stop-color:#303030"/>
				<stop  offset="0.46" style="stop-color:#2E2E2E"/>
				<stop  offset="0.9" style="stop-color:#464646"/>
			</linearGradient>
			<polygon class="st13" points="-261,94.1 -258.5,89.8 -254.1,92.3 -256.6,96.6 			"/>
			
				<linearGradient id="SVGID_15_" gradientUnits="userSpaceOnUse" x1="-270.2122" y1="678.4983" x2="-226.0122" y2="631.9883" gradientTransform="matrix(1 0 0 1 1.402969e-03 -592.008)">
				<stop  offset="0" style="stop-color:#3A3A3A"/>
				<stop  offset="0.14" style="stop-color:#3A3A3A"/>
				<stop  offset="0.25" style="stop-color:#383838"/>
				<stop  offset="0.34" style="stop-color:#343434"/>
				<stop  offset="0.43" style="stop-color:#303030"/>
				<stop  offset="0.46" style="stop-color:#2E2E2E"/>
			</linearGradient>
			<polygon class="st14" points="-273.2,87 -270.7,82.7 -266.4,85.2 -268.9,89.5 			"/>
			
				<linearGradient id="SVGID_16_" gradientUnits="userSpaceOnUse" x1="-250.2754" y1="697.4547" x2="-206.0654" y2="650.9447" gradientTransform="matrix(1 0 0 1 0 -592)">
				<stop  offset="0" style="stop-color:#3A3A3A"/>
				<stop  offset="0.14" style="stop-color:#3A3A3A"/>
				<stop  offset="0.25" style="stop-color:#383838"/>
				<stop  offset="0.34" style="stop-color:#343434"/>
				<stop  offset="0.43" style="stop-color:#303030"/>
				<stop  offset="0.46" style="stop-color:#2E2E2E"/>
				<stop  offset="0.9" style="stop-color:#464646"/>
			</linearGradient>
			<path class="st15" d="M-246.3,96.8l-2.4,4.4l2.2,1.2l0,0c0.8,0.4,1.7,0.4,2.4,0l2.2-1.2l-2.4-4.4H-246.3z"/>
			
				<linearGradient id="SVGID_17_" gradientUnits="userSpaceOnUse" x1="-244.4907" y1="702.9492" x2="-200.2907" y2="656.4291" gradientTransform="matrix(1 0 0 1 -2.257685e-03 -592.0072)">
				<stop  offset="0" style="stop-color:#3A3A3A"/>
				<stop  offset="0.14" style="stop-color:#3A3A3A"/>
				<stop  offset="0.25" style="stop-color:#383838"/>
				<stop  offset="0.34" style="stop-color:#343434"/>
				<stop  offset="0.43" style="stop-color:#303030"/>
				<stop  offset="0.46" style="stop-color:#2E2E2E"/>
				<stop  offset="0.9" style="stop-color:#464646"/>
			</linearGradient>
			<polygon class="st16" points="-224.3,85.2 -219.9,82.7 -217.4,87 -221.8,89.5 			"/>
			
				<linearGradient id="SVGID_18_" gradientUnits="userSpaceOnUse" x1="-247.3875" y1="700.1922" x2="-203.1875" y2="653.6822" gradientTransform="matrix(1 0 0 1 -4.647709e-04 -591.9994)">
				<stop  offset="0" style="stop-color:#3A3A3A"/>
				<stop  offset="0.14" style="stop-color:#3A3A3A"/>
				<stop  offset="0.25" style="stop-color:#383838"/>
				<stop  offset="0.34" style="stop-color:#343434"/>
				<stop  offset="0.43" style="stop-color:#303030"/>
				<stop  offset="0.46" style="stop-color:#2E2E2E"/>
				<stop  offset="0.9" style="stop-color:#464646"/>
			</linearGradient>
			<polygon class="st17" points="-236.5,92.3 -232.2,89.8 -229.7,94.1 -234,96.6 			"/>
			
				<linearGradient id="SVGID_19_" gradientUnits="userSpaceOnUse" x1="-250.2112" y1="697.5202" x2="-206.0012" y2="651.0002" gradientTransform="matrix(1 0 0 1 0 -592)">
				<stop  offset="0" style="stop-color:#3A3A3A"/>
				<stop  offset="0.14" style="stop-color:#3A3A3A"/>
				<stop  offset="0.25" style="stop-color:#383838"/>
				<stop  offset="0.34" style="stop-color:#343434"/>
				<stop  offset="0.43" style="stop-color:#303030"/>
				<stop  offset="0.46" style="stop-color:#2E2E2E"/>
				<stop  offset="0.9" style="stop-color:#464646"/>
			</linearGradient>
			<path class="st18" d="M-222.2,72.4l2.6,4.3l2.1-1.3l0,0c0.7-0.5,1.2-1.3,1.2-2.1v-2.5h-5L-222.2,72.4z"/>
			
				<linearGradient id="SVGID_20_" gradientUnits="userSpaceOnUse" x1="-257.4478" y1="690.631" x2="-213.2478" y2="644.121" gradientTransform="matrix(1 0 0 1 0 -592)">
				<stop  offset="0" style="stop-color:#3A3A3A"/>
				<stop  offset="0.14" style="stop-color:#3A3A3A"/>
				<stop  offset="0.25" style="stop-color:#383838"/>
				<stop  offset="0.34" style="stop-color:#343434"/>
				<stop  offset="0.43" style="stop-color:#303030"/>
				<stop  offset="0.46" style="stop-color:#2E2E2E"/>
				<stop  offset="0.9" style="stop-color:#464646"/>
			</linearGradient>
			<rect x="-221.2" y="55.4" class="st19" width="5" height="5"/>
			
				<linearGradient id="SVGID_21_" gradientUnits="userSpaceOnUse" x1="-264.9778" y1="683.4825" x2="-220.7678" y2="636.9725" gradientTransform="matrix(1 0 0 1 0 -592)">
				<stop  offset="0" style="stop-color:#3A3A3A"/>
				<stop  offset="0.14" style="stop-color:#3A3A3A"/>
				<stop  offset="0.25" style="stop-color:#383838"/>
				<stop  offset="0.34" style="stop-color:#343434"/>
				<stop  offset="0.43" style="stop-color:#303030"/>
				<stop  offset="0.46" style="stop-color:#2E2E2E"/>
				<stop  offset="0.9" style="stop-color:#464646"/>
			</linearGradient>
			<path class="st20" d="M-217.5,40.3l-2.2-1.2l-2.4,4.4l0.9,1.5h5v-2.5l0,0C-216.2,41.6-216.7,40.8-217.5,40.3z"/>
			
				<linearGradient id="SVGID_22_" gradientUnits="userSpaceOnUse" x1="-281.9918" y1="673.0642" x2="-237.7918" y2="626.5542" gradientTransform="matrix(1.0034 -1.987308e-03 1.987308e-03 1.0034 5.6503 -594.8582)">
				<stop  offset="0" style="stop-color:#3A3A3A"/>
				<stop  offset="0.14" style="stop-color:#3A3A3A"/>
				<stop  offset="0.25" style="stop-color:#383838"/>
				<stop  offset="0.34" style="stop-color:#343434"/>
				<stop  offset="0.43" style="stop-color:#303030"/>
				<stop  offset="0.46" style="stop-color:#2E2E2E"/>
				<stop  offset="0.9" style="stop-color:#464646"/>
			</linearGradient>
			<polygon class="st21" points="-235.4,35.5 -232.9,31.2 -228.5,33.7 -231,38 			"/>
			
				<linearGradient id="SVGID_23_" gradientUnits="userSpaceOnUse" x1="-286.787" y1="662.7506" x2="-242.5871" y2="616.2406" gradientTransform="matrix(1 0 0 1 0 -592)">
				<stop  offset="0" style="stop-color:#3A3A3A"/>
				<stop  offset="0.14" style="stop-color:#3A3A3A"/>
				<stop  offset="0.25" style="stop-color:#383838"/>
				<stop  offset="0.34" style="stop-color:#343434"/>
				<stop  offset="0.43" style="stop-color:#303030"/>
				<stop  offset="0.46" style="stop-color:#2E2E2E"/>
				<stop  offset="0.9" style="stop-color:#464646"/>
			</linearGradient>
			<path class="st22" d="M-244.1,25c-0.7-0.4-1.7-0.4-2.4,0l-2.2,1.2l2.4,4.4h2l2.4-4.4L-244.1,25L-244.1,25z"/>
			
				<linearGradient id="SVGID_24_" gradientUnits="userSpaceOnUse" x1="-289.9792" y1="659.7216" x2="-245.7692" y2="613.2116" gradientTransform="matrix(1 0 0 1 -6.554856e-03 -591.9976)">
				<stop  offset="0" style="stop-color:#3A3A3A"/>
				<stop  offset="0.14" style="stop-color:#3A3A3A"/>
				<stop  offset="0.25" style="stop-color:#383838"/>
				<stop  offset="0.34" style="stop-color:#343434"/>
				<stop  offset="0.43" style="stop-color:#303030"/>
				<stop  offset="0.46" style="stop-color:#2E2E2E"/>
				<stop  offset="0.9" style="stop-color:#464646"/>
			</linearGradient>
			<polygon class="st23" points="-262.1,33.9 -257.7,31.4 -255.2,35.7 -259.6,38.2 			"/>
			
				<linearGradient id="SVGID_25_" gradientUnits="userSpaceOnUse" x1="-292.7283" y1="657.111" x2="-248.5183" y2="610.601" gradientTransform="matrix(1 0 0 1 0 -592)">
				<stop  offset="0" style="stop-color:#3A3A3A"/>
				<stop  offset="0.14" style="stop-color:#3A3A3A"/>
				<stop  offset="0.25" style="stop-color:#383838"/>
				<stop  offset="0.34" style="stop-color:#343434"/>
				<stop  offset="0.43" style="stop-color:#303030"/>
				<stop  offset="0.46" style="stop-color:#2E2E2E"/>
				<stop  offset="0.9" style="stop-color:#464646"/>
			</linearGradient>
			<path class="st24" d="M-268.5,43.5l-2.4-4.4l-2.2,1.2l0,0c-0.8,0.4-1.3,1.3-1.3,2.2V45h5L-268.5,43.5z"/>
			
				<linearGradient id="SVGID_26_" gradientUnits="userSpaceOnUse" x1="-285.4056" y1="664.0726" x2="-241.2056" y2="617.5526" gradientTransform="matrix(1 0 0 1 0 -592)">
				<stop  offset="0" style="stop-color:#3A3A3A"/>
				<stop  offset="0.14" style="stop-color:#3A3A3A"/>
				<stop  offset="0.25" style="stop-color:#383838"/>
				<stop  offset="0.34" style="stop-color:#343434"/>
				<stop  offset="0.43" style="stop-color:#303030"/>
				<stop  offset="0.46" style="stop-color:#2E2E2E"/>
				<stop  offset="0.9" style="stop-color:#464646"/>
			</linearGradient>
			<rect x="-274.4" y="55.4" class="st25" width="5" height="5"/>
			
				<linearGradient id="SVGID_27_" gradientUnits="userSpaceOnUse" x1="-277.9845" y1="671.1161" x2="-233.7845" y2="624.6061" gradientTransform="matrix(1 0 0 1 0 -592)">
				<stop  offset="0" style="stop-color:#3A3A3A"/>
				<stop  offset="0.14" style="stop-color:#3A3A3A"/>
				<stop  offset="0.25" style="stop-color:#383838"/>
				<stop  offset="0.34" style="stop-color:#343434"/>
				<stop  offset="0.43" style="stop-color:#303030"/>
				<stop  offset="0.46" style="stop-color:#2E2E2E"/>
				<stop  offset="0.9" style="stop-color:#464646"/>
			</linearGradient>
			<path class="st26" d="M-268.5,72.4l-0.9-1.7h-5v2.5l0,0c0,0.9,0.4,1.7,1.2,2.1l2.1,1.3L-268.5,72.4z"/>
			
				<linearGradient id="SVGID_28_" gradientUnits="userSpaceOnUse" x1="-266.9554" y1="681.6052" x2="-222.7554" y2="635.0851" gradientTransform="matrix(1 0 0 1 -1.069799e-03 -592.0046)">
				<stop  offset="0" style="stop-color:#3A3A3A"/>
				<stop  offset="0.14" style="stop-color:#3A3A3A"/>
				<stop  offset="0.25" style="stop-color:#383838"/>
				<stop  offset="0.34" style="stop-color:#343434"/>
				<stop  offset="0.43" style="stop-color:#303030"/>
				<stop  offset="0.46" style="stop-color:#2E2E2E"/>
				<stop  offset="0.9" style="stop-color:#464646"/>
			</linearGradient>
			<polygon class="st27" points="-262.1,81.8 -259.6,77.5 -255.2,80 -257.7,84.3 			"/>
			
				<linearGradient id="SVGID_29_" gradientUnits="userSpaceOnUse" x1="-256.0665" y1="691.9527" x2="-211.8665" y2="645.4327" gradientTransform="matrix(1 0 0 1 0 -592)">
				<stop  offset="0" style="stop-color:#3A3A3A"/>
				<stop  offset="0.14" style="stop-color:#3A3A3A"/>
				<stop  offset="0.25" style="stop-color:#383838"/>
				<stop  offset="0.34" style="stop-color:#343434"/>
				<stop  offset="0.43" style="stop-color:#303030"/>
				<stop  offset="0.46" style="stop-color:#2E2E2E"/>
				<stop  offset="0.9" style="stop-color:#464646"/>
			</linearGradient>
			<path class="st28" d="M-246.3,85.2l-2.4,4.4l2.2,1.2l0,0c0.8,0.4,1.7,0.4,2.4,0l2.2-1.2l-2.4-4.4H-246.3z"/>
			
				<linearGradient id="SVGID_30_" gradientUnits="userSpaceOnUse" x1="-252.956" y1="694.9042" x2="-208.756" y2="648.3842" gradientTransform="matrix(1 0 0 1 2.040803e-03 -591.9923)">
				<stop  offset="0" style="stop-color:#3A3A3A"/>
				<stop  offset="0.14" style="stop-color:#3A3A3A"/>
				<stop  offset="0.25" style="stop-color:#383838"/>
				<stop  offset="0.34" style="stop-color:#343434"/>
				<stop  offset="0.43" style="stop-color:#303030"/>
				<stop  offset="0.46" style="stop-color:#2E2E2E"/>
				<stop  offset="0.9" style="stop-color:#464646"/>
			</linearGradient>
			<polygon class="st29" points="-235.4,80 -231.1,77.5 -228.6,81.8 -232.9,84.3 			"/>
			
				<linearGradient id="SVGID_31_" gradientUnits="userSpaceOnUse" x1="-258.3802" y1="689.7497" x2="-214.1802" y2="643.2297" gradientTransform="matrix(1 0 0 1 0 -592)">
				<stop  offset="0" style="stop-color:#3A3A3A"/>
				<stop  offset="0.14" style="stop-color:#3A3A3A"/>
				<stop  offset="0.25" style="stop-color:#383838"/>
				<stop  offset="0.34" style="stop-color:#343434"/>
				<stop  offset="0.43" style="stop-color:#303030"/>
				<stop  offset="0.46" style="stop-color:#2E2E2E"/>
				<stop  offset="0.9" style="stop-color:#464646"/>
			</linearGradient>
			<path class="st30" d="M-232.2,66.4l2.4,4.4l2.2-1.2l0,0c0.8-0.4,1.3-1.3,1.3-2.2v-2.5h-5L-232.2,66.4z"/>
			
				<linearGradient id="SVGID_32_" gradientUnits="userSpaceOnUse" x1="-267.3792" y1="681.2016" x2="-223.1792" y2="634.6816" gradientTransform="matrix(1 0 0 1 0 -592)">
				<stop  offset="0" style="stop-color:#3A3A3A"/>
				<stop  offset="0.14" style="stop-color:#3A3A3A"/>
				<stop  offset="0.25" style="stop-color:#383838"/>
				<stop  offset="0.34" style="stop-color:#343434"/>
				<stop  offset="0.43" style="stop-color:#303030"/>
				<stop  offset="0.46" style="stop-color:#2E2E2E"/>
				<stop  offset="0.9" style="stop-color:#464646"/>
			</linearGradient>
			<path class="st31" d="M-226.3,48.3c0-0.9-0.5-1.7-1.3-2.2l-2.2-1.2l-2.4,4.4l0.9,1.5h5V48.3L-226.3,48.3z"/>
			
				<linearGradient id="SVGID_33_" gradientUnits="userSpaceOnUse" x1="-280.9941" y1="668.2549" x2="-236.7941" y2="621.7449" gradientTransform="matrix(1 0 0 1 0 -592)">
				<stop  offset="0" style="stop-color:#3A3A3A"/>
				<stop  offset="0.14" style="stop-color:#3A3A3A"/>
				<stop  offset="0.25" style="stop-color:#383838"/>
				<stop  offset="0.34" style="stop-color:#343434"/>
				<stop  offset="0.43" style="stop-color:#303030"/>
				<stop  offset="0.46" style="stop-color:#2E2E2E"/>
				<stop  offset="0.9" style="stop-color:#464646"/>
			</linearGradient>
			<path class="st32" d="M-244.1,36.6c-0.8-0.4-1.7-0.4-2.4,0l-2.2,1.2l2.4,4.4h2l2.4-4.4L-244.1,36.6L-244.1,36.6z"/>
			
				<linearGradient id="SVGID_34_" gradientUnits="userSpaceOnUse" x1="-284.5521" y1="664.8788" x2="-240.3421" y2="618.3688" gradientTransform="matrix(1 0 0 1 0 -592)">
				<stop  offset="0" style="stop-color:#3A3A3A"/>
				<stop  offset="0.14" style="stop-color:#3A3A3A"/>
				<stop  offset="0.25" style="stop-color:#383838"/>
				<stop  offset="0.34" style="stop-color:#343434"/>
				<stop  offset="0.43" style="stop-color:#303030"/>
				<stop  offset="0.46" style="stop-color:#2E2E2E"/>
				<stop  offset="0.9" style="stop-color:#464646"/>
			</linearGradient>
			<path class="st33" d="M-258.4,49.1l-2.7-4.2l-2.1,1.3l0,0c-0.7,0.5-1.2,1.3-1.2,2.1v2.5h5L-258.4,49.1z"/>
			
				<linearGradient id="SVGID_35_" gradientUnits="userSpaceOnUse" x1="-275.6304" y1="673.3615" x2="-231.4204" y2="626.8415" gradientTransform="matrix(1 0 0 1 0 -592)">
				<stop  offset="0" style="stop-color:#3A3A3A"/>
				<stop  offset="0.14" style="stop-color:#3A3A3A"/>
				<stop  offset="0.25" style="stop-color:#383838"/>
				<stop  offset="0.34" style="stop-color:#343434"/>
				<stop  offset="0.43" style="stop-color:#303030"/>
				<stop  offset="0.46" style="stop-color:#2E2E2E"/>
				<stop  offset="0.9" style="stop-color:#464646"/>
			</linearGradient>
			<path class="st34" d="M-258.4,66.6l-1-1.7h-5v2.5l0,0c0,0.9,0.4,1.7,1.2,2.1l2.1,1.3L-258.4,66.6z"/>
			
				<linearGradient id="SVGID_36_" gradientUnits="userSpaceOnUse" x1="-261.8609" y1="686.447" x2="-217.6509" y2="639.927" gradientTransform="matrix(1 0 0 1 0 -592)">
				<stop  offset="0" style="stop-color:#3A3A3A"/>
				<stop  offset="0.14" style="stop-color:#3A3A3A"/>
				<stop  offset="0.25" style="stop-color:#383838"/>
				<stop  offset="0.34" style="stop-color:#343434"/>
				<stop  offset="0.43" style="stop-color:#303030"/>
				<stop  offset="0.46" style="stop-color:#2E2E2E"/>
				<stop  offset="0.9" style="stop-color:#464646"/>
			</linearGradient>
			<path class="st35" d="M-246.3,73.6l-2.4,4.4l2.2,1.2l0,0c0.8,0.4,1.7,0.4,2.4,0l2.2-1.2l-2.4-4.4H-246.3z"/>
		</g>
	</g>
</g>
<g id="Layer_2_2_">
	<g id="Layer_1-2_1_">
		<path d="M-500,120.1v-10.5h6.6v1.2h-5.3v3.7h4.5v1.1h-4.5v4.5L-500,120.1z"/>
		<path d="M-486.8,120.3c-0.8,0-1.6-0.2-2.2-0.7s-1.1-1.1-1.4-1.9c-0.7-1.9-0.7-3.9,0-5.7c0.3-0.8,0.8-1.4,1.4-1.9
			c1.3-0.9,3.1-0.9,4.4,0c0.6,0.5,1.1,1.1,1.4,1.9c0.7,1.9,0.7,3.9,0,5.7c-0.3,0.8-0.8,1.4-1.4,1.9
			C-485.2,120.1-486,120.3-486.8,120.3z M-486.8,119.1c0.8,0,1.6-0.4,2-1.1c1-2,1-4.3,0-6.3c-0.7-1.1-2.2-1.4-3.3-0.7
			c-0.3,0.2-0.5,0.4-0.7,0.7c-1,2-1,4.3,0,6.3C-488.3,118.7-487.6,119.1-486.8,119.1z"/>
		<path d="M-479.9,120.1v-10.5h3.2c0.7,0,1.4,0.1,2,0.4c0.5,0.2,0.9,0.6,1.2,1.1c0.3,0.5,0.4,1,0.4,1.6s-0.2,1.3-0.5,1.8
			c-0.4,0.5-1,0.9-1.6,1.1l2.3,4.5h-1.5l-2.1-4.3h-2v4.3H-479.9z M-478.6,114.7h1.9c0.6,0.1,1.3-0.1,1.8-0.5
			c0.4-0.4,0.6-0.9,0.6-1.4s-0.2-1.1-0.6-1.4c-0.5-0.4-1.1-0.6-1.8-0.5h-1.9V114.7z"/>
		<path d="M-460.3,120.1l3.3-10.5h1.5l3.3,10.5h-1.4l-0.8-2.6h-3.7l-0.8,2.6H-460.3z M-456.3,111.4l-1.5,5.1h3.1L-456.3,111.4
			L-456.3,111.4z"/>
		<path d="M-500.4,152.1v-10.5h2.2c1.4-0.1,2.8,0.4,3.8,1.4c1.6,2.3,1.6,5.4,0,7.7c-1,1-2.4,1.5-3.8,1.4L-500.4,152.1L-500.4,152.1z
			 M-499.2,151h0.9c0.8,0,1.5-0.1,2.2-0.5c0.5-0.3,1-0.8,1.2-1.4c0.5-1.4,0.5-2.9,0-4.3c-0.2-0.6-0.7-1.1-1.2-1.4
			c-0.7-0.4-1.4-0.5-2.2-0.5h-0.9V151z"/>
		<path d="M-489.9,152.1v-10.5h6.6v1.1h-5.3v3.5h4.8v1.1h-4.8v3.6h5.3v1.1L-489.9,152.1z"/>
		<path d="M-476.5,152.3c-0.8,0-1.6-0.2-2.2-0.7c-0.6-0.5-1.1-1.1-1.4-1.9c-0.7-1.9-0.7-3.9,0-5.7c0.3-0.7,0.8-1.4,1.4-1.9
			s1.4-0.7,2.2-0.7c1,0,1.9,0.3,2.6,0.9c0.7,0.6,1.1,1.5,1.1,2.4h-1.4c-0.1-0.6-0.3-1.1-0.8-1.5c-0.4-0.4-1-0.6-1.6-0.6
			c-0.8,0-1.6,0.4-2.1,1.1c-1,2-1,4.3,0,6.2c0.4,0.7,1.2,1.1,2.1,1.1c0.6,0,1.2-0.2,1.6-0.6c0.4-0.4,0.7-0.9,0.7-1.5h1.4
			c-0.1,0.9-0.5,1.7-1.2,2.4C-474.7,152.1-475.6,152.4-476.5,152.3z"/>
		<path d="M-469.7,152.1v-10.5h6.6v1.1h-5.3v3.5h4.8v1.1h-4.8v3.6h5.3v1.1L-469.7,152.1z"/>
		<path d="M-459.9,152.1v-10.5h1.3l4.8,8.3v-8.3h1.2v10.5h-1.3l-4.8-8.3v8.3H-459.9z"/>
		<path d="M-446.8,152.1v-9.4h-2.8v-1.1h6.9v1.1h-2.8v9.4H-446.8z"/>
		<path d="M-439.3,152.1v-10.5h3.2c0.7,0,1.4,0.1,2,0.4c0.5,0.2,0.9,0.6,1.2,1.1c0.3,0.5,0.4,1,0.4,1.6s-0.2,1.3-0.5,1.8
			c-0.4,0.5-1,0.9-1.6,1.1l2.3,4.5h-1.5l-2.1-4.3h-2v4.3L-439.3,152.1z M-438,146.7h1.9c0.6,0.1,1.3-0.1,1.8-0.5
			c0.4-0.4,0.6-0.9,0.6-1.4s-0.2-1-0.6-1.4c-0.5-0.4-1.1-0.6-1.8-0.5h-1.9V146.7z"/>
		<path d="M-429.8,152.1l3.3-10.5h1.4l3.3,10.5h-1.4l-0.8-2.6h-3.7l-0.8,2.6H-429.8z M-425.8,143.4l-1.5,5.1h3.1L-425.8,143.4
			L-425.8,143.4z"/>
		<path d="M-418.9,152.1v-10.5h1.3v9.4h5.3v1.1H-418.9z"/>
		<path d="M-408.5,152.1V151h2.4v-8.3h-2.4v-1.1h6v1.1h-2.4v8.3h2.4v1.1H-408.5z"/>
		<path d="M-398.8,152.1v-1l5.4-8.3h-5.4v-1.1h6.8v1l-5.4,8.3h5.5v1.1H-398.8z"/>
		<path d="M-388.4,152.1v-10.5h6.6v1.1h-5.3v3.5h4.8v1.1h-4.8v3.6h5.3v1.1L-388.4,152.1z"/>
		<path d="M-378.6,152.1v-10.5h2.2c1.4-0.1,2.8,0.4,3.8,1.4c1.6,2.3,1.6,5.4,0,7.7c-1,1-2.4,1.5-3.8,1.4L-378.6,152.1z M-377.3,151
			h0.9c0.8,0,1.5-0.1,2.2-0.5c0.6-0.3,1-0.9,1.2-1.5c0.5-1.4,0.5-2.9,0-4.3c-0.2-0.6-0.7-1.1-1.2-1.4c-0.7-0.4-1.4-0.5-2.2-0.5h-0.9
			V151z"/>
		<path d="M-499.9,184.1V183h2.4v-8.3h-2.4v-1.1h6v1.1h-2.4v8.3h2.4v1.1H-499.9z"/>
		<path d="M-490.4,184.1v-10.5h1.3l4.8,8.3v-8.3h1.2v10.5h-1.3l-4.8-8.3v8.3H-490.4z"/>
		<path d="M-477.2,184.1v-9.4h-2.8v-1.1h6.9v1.1h-2.8v9.4H-477.2z"/>
		<path d="M-469.7,184.1v-10.5h6.6v1.1h-5.3v3.5h4.8v1.1h-4.8v3.6h5.3v1.1L-469.7,184.1z"/>
		<path d="M-459.6,184.1v-10.5h3.2c0.7,0,1.4,0.1,2,0.4c0.5,0.2,0.9,0.6,1.2,1.1c0.3,0.5,0.4,1,0.4,1.6s-0.2,1.3-0.5,1.8
			c-0.4,0.5-1,0.9-1.6,1.1l2.3,4.5h-1.5l-2.1-4.3h-2v4.3L-459.6,184.1z M-458.3,178.7h1.9c0.6,0.1,1.3-0.1,1.8-0.5
			c0.4-0.4,0.6-0.9,0.6-1.4s-0.2-1-0.6-1.4c-0.5-0.4-1.1-0.6-1.8-0.5h-1.9V178.7z"/>
		<path d="M-449.8,184.1v-10.5h1.3l4.8,8.3v-8.3h1.2v10.5h-1.3l-4.8-8.3v8.3H-449.8z"/>
		<path d="M-439.2,184.1v-10.5h6.6v1.1h-5.3v3.5h4.9v1.1h-4.9v3.6h5.3v1.1L-439.2,184.1z"/>
		<path d="M-426.5,184.1v-9.4h-2.8v-1.1h6.9v1.1h-2.8v9.4H-426.5z"/>
		
			<linearGradient id="SVGID_37_" gradientUnits="userSpaceOnUse" x1="-559.3011" y1="705.3882" x2="-515.0911" y2="658.8682" gradientTransform="matrix(1 0 0 1 0 -592)">
			<stop  offset="0" style="stop-color:#0033FF"/>
			<stop  offset="0.14" style="stop-color:#0331FF"/>
			<stop  offset="0.25" style="stop-color:#0C29FF"/>
			<stop  offset="0.34" style="stop-color:#1C1BFF"/>
			<stop  offset="0.43" style="stop-color:#3308FF"/>
			<stop  offset="0.46" style="stop-color:#3D00FF"/>
			<stop  offset="0.9" style="stop-color:#8B00FF"/>
		</linearGradient>
		<path class="st36" d="M-529.4,78.1l2.4,4.4l2.2-1.2l0,0c0.8-0.4,1.3-1.3,1.3-2.2v-2.5h-5L-529.4,78.1z"/>
		
			<linearGradient id="SVGID_38_" gradientUnits="userSpaceOnUse" x1="-566.0159" y1="698.9955" x2="-521.8159" y2="652.4855" gradientTransform="matrix(1 0 0 1 0 -592)">
			<stop  offset="0" style="stop-color:#0033FF"/>
			<stop  offset="0.14" style="stop-color:#0331FF"/>
			<stop  offset="0.25" style="stop-color:#0C29FF"/>
			<stop  offset="0.34" style="stop-color:#1C1BFF"/>
			<stop  offset="0.43" style="stop-color:#3308FF"/>
			<stop  offset="0.46" style="stop-color:#3D00FF"/>
			<stop  offset="0.9" style="stop-color:#8B00FF"/>
		</linearGradient>
		<rect x="-528.5" y="62.4" class="st37" width="5" height="5"/>
		
			<linearGradient id="SVGID_39_" gradientUnits="userSpaceOnUse" x1="-573.067" y1="692.3039" x2="-528.8571" y2="645.7939" gradientTransform="matrix(1 0 0 1 0 -592)">
			<stop  offset="0" style="stop-color:#0033FF"/>
			<stop  offset="0.14" style="stop-color:#0331FF"/>
			<stop  offset="0.25" style="stop-color:#0C29FF"/>
			<stop  offset="0.34" style="stop-color:#1C1BFF"/>
			<stop  offset="0.43" style="stop-color:#3308FF"/>
			<stop  offset="0.46" style="stop-color:#3D00FF"/>
			<stop  offset="0.9" style="stop-color:#8B00FF"/>
		</linearGradient>
		<rect x="-528.5" y="48.3" class="st38" width="5" height="5"/>
		
			<linearGradient id="SVGID_40_" gradientUnits="userSpaceOnUse" x1="-579.8855" y1="685.8239" x2="-535.6755" y2="639.3139" gradientTransform="matrix(1 0 0 1 0 -592)">
			<stop  offset="0" style="stop-color:#0033FF"/>
			<stop  offset="0.14" style="stop-color:#0331FF"/>
			<stop  offset="0.25" style="stop-color:#0C29FF"/>
			<stop  offset="0.34" style="stop-color:#1C1BFF"/>
			<stop  offset="0.43" style="stop-color:#3308FF"/>
			<stop  offset="0.46" style="stop-color:#3D00FF"/>
			<stop  offset="0.9" style="stop-color:#8B00FF"/>
		</linearGradient>
		<path class="st39" d="M-524.7,34.5l-2.1-1.3l-2.6,4.3l1,1.7h5v-2.5l0,0C-523.5,35.8-524,35-524.7,34.5z"/>
		
			<linearGradient id="SVGID_41_" gradientUnits="userSpaceOnUse" x1="-600.0377" y1="666.6738" x2="-555.8378" y2="620.1538" gradientTransform="matrix(1 0 0 1 6.832551e-03 -592.0049)">
			<stop  offset="0" style="stop-color:#0033FF"/>
			<stop  offset="0.14" style="stop-color:#0331FF"/>
			<stop  offset="0.25" style="stop-color:#0C29FF"/>
			<stop  offset="0.34" style="stop-color:#1C1BFF"/>
			<stop  offset="0.43" style="stop-color:#3308FF"/>
			<stop  offset="0.46" style="stop-color:#3D00FF"/>
			<stop  offset="0.9" style="stop-color:#8B00FF"/>
		</linearGradient>
		<polygon class="st40" points="-553.9,23.5 -551.4,19.1 -547.1,21.7 -549.6,26 		"/>
		
			<linearGradient id="SVGID_42_" gradientUnits="userSpaceOnUse" x1="-590.0862" y1="676.1353" x2="-545.8762" y2="629.6153" gradientTransform="matrix(1 0 0 1 -9.702119e-04 -592.0014)">
			<stop  offset="0" style="stop-color:#0033FF"/>
			<stop  offset="0.14" style="stop-color:#0331FF"/>
			<stop  offset="0.25" style="stop-color:#0C29FF"/>
			<stop  offset="0.34" style="stop-color:#1C1BFF"/>
			<stop  offset="0.43" style="stop-color:#3308FF"/>
			<stop  offset="0.46" style="stop-color:#3D00FF"/>
			<stop  offset="0.9" style="stop-color:#8B00FF"/>
		</linearGradient>
		<polygon class="st41" points="-541.7,30.5 -539.2,26.2 -534.8,28.7 -537.3,33 		"/>
		
			<linearGradient id="SVGID_43_" gradientUnits="userSpaceOnUse" x1="-610.0066" y1="657.2039" x2="-565.7966" y2="610.6839" gradientTransform="matrix(1 0 0 1 0 -592)">
			<stop  offset="0" style="stop-color:#0033FF"/>
			<stop  offset="0.14" style="stop-color:#0331FF"/>
			<stop  offset="0.25" style="stop-color:#0C29FF"/>
			<stop  offset="0.34" style="stop-color:#1C1BFF"/>
			<stop  offset="0.43" style="stop-color:#3308FF"/>
			<stop  offset="0.46" style="stop-color:#3D00FF"/>
			<stop  offset="0.9" style="stop-color:#8B00FF"/>
		</linearGradient>
		<path class="st42" d="M-561.5,13.3c-0.8-0.4-1.7-0.4-2.4,0l-2.2,1.2l2.4,4.4h2l2.4-4.4L-561.5,13.3L-561.5,13.3z"/>
		
			<linearGradient id="SVGID_44_" gradientUnits="userSpaceOnUse" x1="-615.8019" y1="651.6899" x2="-571.6019" y2="605.1799" gradientTransform="matrix(1 0 0 1 1.401126e-03 -592.0064)">
			<stop  offset="0" style="stop-color:#0033FF"/>
			<stop  offset="0.14" style="stop-color:#0331FF"/>
			<stop  offset="0.25" style="stop-color:#0C29FF"/>
			<stop  offset="0.34" style="stop-color:#1C1BFF"/>
			<stop  offset="0.43" style="stop-color:#3308FF"/>
			<stop  offset="0.46" style="stop-color:#3D00FF"/>
			<stop  offset="0.9" style="stop-color:#8B00FF"/>
		</linearGradient>
		<polygon class="st43" points="-590.6,28.7 -586.3,26.2 -583.8,30.5 -588.1,33 		"/>
		
			<linearGradient id="SVGID_45_" gradientUnits="userSpaceOnUse" x1="-612.8679" y1="654.4821" x2="-568.658" y2="607.9622" gradientTransform="matrix(1 0 0 1 -4.046557e-03 -591.9905)">
			<stop  offset="0" style="stop-color:#0033FF"/>
			<stop  offset="0.14" style="stop-color:#0331FF"/>
			<stop  offset="0.25" style="stop-color:#0C29FF"/>
			<stop  offset="0.34" style="stop-color:#1C1BFF"/>
			<stop  offset="0.43" style="stop-color:#3308FF"/>
			<stop  offset="0.46" style="stop-color:#3D00FF"/>
			<stop  offset="0.9" style="stop-color:#8B00FF"/>
		</linearGradient>
		<polygon class="st44" points="-578.4,21.7 -574,19.1 -571.5,23.5 -575.9,26 		"/>
		
			<linearGradient id="SVGID_46_" gradientUnits="userSpaceOnUse" x1="-618.2968" y1="649.3137" x2="-574.0967" y2="602.8037" gradientTransform="matrix(1 0 0 1 0 -592)">
			<stop  offset="0" style="stop-color:#0033FF"/>
			<stop  offset="0.14" style="stop-color:#0331FF"/>
			<stop  offset="0.25" style="stop-color:#0C29FF"/>
			<stop  offset="0.34" style="stop-color:#1C1BFF"/>
			<stop  offset="0.43" style="stop-color:#3308FF"/>
			<stop  offset="0.46" style="stop-color:#3D00FF"/>
			<stop  offset="0.9" style="stop-color:#8B00FF"/>
		</linearGradient>
		<path class="st45" d="M-600.6,34.5L-600.6,34.5c-0.8,0.4-1.3,1.3-1.3,2.2v2.5h5l0.9-1.5l-2.4-4.4L-600.6,34.5z"/>
		
			<linearGradient id="SVGID_47_" gradientUnits="userSpaceOnUse" x1="-611.6255" y1="655.6554" x2="-567.4255" y2="609.1354" gradientTransform="matrix(1 0 0 1 0 -592)">
			<stop  offset="0" style="stop-color:#0033FF"/>
			<stop  offset="0.14" style="stop-color:#0331FF"/>
			<stop  offset="0.25" style="stop-color:#0C29FF"/>
			<stop  offset="0.34" style="stop-color:#1C1BFF"/>
			<stop  offset="0.43" style="stop-color:#3308FF"/>
			<stop  offset="0.46" style="stop-color:#3D00FF"/>
			<stop  offset="0.9" style="stop-color:#8B00FF"/>
		</linearGradient>
		<rect x="-601.9" y="48.3" class="st46" width="5" height="5"/>
		
			<linearGradient id="SVGID_48_" gradientUnits="userSpaceOnUse" x1="-604.5861" y1="662.3453" x2="-560.3861" y2="615.8354" gradientTransform="matrix(1 0 0 1 0 -592)">
			<stop  offset="0" style="stop-color:#0033FF"/>
			<stop  offset="0.14" style="stop-color:#0331FF"/>
			<stop  offset="0.25" style="stop-color:#0C29FF"/>
			<stop  offset="0.34" style="stop-color:#1C1BFF"/>
			<stop  offset="0.43" style="stop-color:#3308FF"/>
			<stop  offset="0.46" style="stop-color:#3D00FF"/>
			<stop  offset="0.9" style="stop-color:#8B00FF"/>
		</linearGradient>
		<rect x="-601.9" y="62.4" class="st47" width="5" height="5"/>
		
			<linearGradient id="SVGID_49_" gradientUnits="userSpaceOnUse" x1="-597.6382" y1="668.9509" x2="-553.4282" y2="622.4409" gradientTransform="matrix(1 0 0 1 0 -592)">
			<stop  offset="0" style="stop-color:#0033FF"/>
			<stop  offset="0.14" style="stop-color:#0331FF"/>
			<stop  offset="0.25" style="stop-color:#0C29FF"/>
			<stop  offset="0.34" style="stop-color:#1C1BFF"/>
			<stop  offset="0.43" style="stop-color:#3308FF"/>
			<stop  offset="0.46" style="stop-color:#3D00FF"/>
			<stop  offset="0.9" style="stop-color:#8B00FF"/>
		</linearGradient>
		<path class="st48" d="M-596.9,76.6h-5v2.5l0,0c0,1,0.5,1.8,1.4,2.2l2.3,1.1l2.2-4.4L-596.9,76.6z"/>
		
			<linearGradient id="SVGID_50_" gradientUnits="userSpaceOnUse" x1="-577.6082" y1="687.9824" x2="-533.4081" y2="641.4724" gradientTransform="matrix(1 0 0 1 2.265869e-03 -591.9995)">
			<stop  offset="0" style="stop-color:#0033FF"/>
			<stop  offset="0.14" style="stop-color:#0331FF"/>
			<stop  offset="0.25" style="stop-color:#0C29FF"/>
			<stop  offset="0.34" style="stop-color:#1C1BFF"/>
			<stop  offset="0.43" style="stop-color:#3308FF"/>
			<stop  offset="0.46" style="stop-color:#3D00FF"/>
			<stop  offset="0.9" style="stop-color:#8B00FF"/>
		</linearGradient>
		<polygon class="st49" points="-578.4,94.1 -575.9,89.8 -571.5,92.3 -574,96.6 		"/>
		
			<linearGradient id="SVGID_51_" gradientUnits="userSpaceOnUse" x1="-587.5835" y1="678.4983" x2="-543.3835" y2="631.9883" gradientTransform="matrix(1 0 0 1 1.402969e-03 -592.008)">
			<stop  offset="0" style="stop-color:#0033FF"/>
			<stop  offset="0.14" style="stop-color:#0331FF"/>
			<stop  offset="0.25" style="stop-color:#0C29FF"/>
			<stop  offset="0.34" style="stop-color:#1C1BFF"/>
			<stop  offset="0.43" style="stop-color:#3308FF"/>
			<stop  offset="0.46" style="stop-color:#3D00FF"/>
		</linearGradient>
		<polygon class="st50" points="-590.6,87 -588.1,82.7 -583.8,85.2 -586.3,89.5 		"/>
		
			<linearGradient id="SVGID_52_" gradientUnits="userSpaceOnUse" x1="-567.6467" y1="697.4547" x2="-523.4368" y2="650.9447" gradientTransform="matrix(1 0 0 1 0 -592)">
			<stop  offset="0" style="stop-color:#0033FF"/>
			<stop  offset="0.14" style="stop-color:#0331FF"/>
			<stop  offset="0.25" style="stop-color:#0C29FF"/>
			<stop  offset="0.34" style="stop-color:#1C1BFF"/>
			<stop  offset="0.43" style="stop-color:#3308FF"/>
			<stop  offset="0.46" style="stop-color:#3D00FF"/>
			<stop  offset="0.9" style="stop-color:#8B00FF"/>
		</linearGradient>
		<path class="st51" d="M-563.7,96.8l-2.4,4.4l2.2,1.2l0,0c0.8,0.4,1.7,0.4,2.4,0l2.2-1.2l-2.4-4.4H-563.7z"/>
		
			<linearGradient id="SVGID_53_" gradientUnits="userSpaceOnUse" x1="-561.862" y1="702.9492" x2="-517.662" y2="656.4291" gradientTransform="matrix(1 0 0 1 -2.257685e-03 -592.0072)">
			<stop  offset="0" style="stop-color:#0033FF"/>
			<stop  offset="0.14" style="stop-color:#0331FF"/>
			<stop  offset="0.25" style="stop-color:#0C29FF"/>
			<stop  offset="0.34" style="stop-color:#1C1BFF"/>
			<stop  offset="0.43" style="stop-color:#3308FF"/>
			<stop  offset="0.46" style="stop-color:#3D00FF"/>
			<stop  offset="0.9" style="stop-color:#8B00FF"/>
		</linearGradient>
		<polygon class="st52" points="-541.7,85.2 -537.3,82.7 -534.8,87 -539.2,89.5 		"/>
		
			<linearGradient id="SVGID_54_" gradientUnits="userSpaceOnUse" x1="-564.7589" y1="700.1922" x2="-520.5589" y2="653.6822" gradientTransform="matrix(1 0 0 1 -4.647709e-04 -591.9994)">
			<stop  offset="0" style="stop-color:#0033FF"/>
			<stop  offset="0.14" style="stop-color:#0331FF"/>
			<stop  offset="0.25" style="stop-color:#0C29FF"/>
			<stop  offset="0.34" style="stop-color:#1C1BFF"/>
			<stop  offset="0.43" style="stop-color:#3308FF"/>
			<stop  offset="0.46" style="stop-color:#3D00FF"/>
			<stop  offset="0.9" style="stop-color:#8B00FF"/>
		</linearGradient>
		<polygon class="st53" points="-553.9,92.3 -549.6,89.8 -547.1,94.1 -551.4,96.6 		"/>
		
			<linearGradient id="SVGID_55_" gradientUnits="userSpaceOnUse" x1="-567.5826" y1="697.5202" x2="-523.3726" y2="651.0002" gradientTransform="matrix(1 0 0 1 0 -592)">
			<stop  offset="0" style="stop-color:#0033FF"/>
			<stop  offset="0.14" style="stop-color:#0331FF"/>
			<stop  offset="0.25" style="stop-color:#0C29FF"/>
			<stop  offset="0.34" style="stop-color:#1C1BFF"/>
			<stop  offset="0.43" style="stop-color:#3308FF"/>
			<stop  offset="0.46" style="stop-color:#3D00FF"/>
			<stop  offset="0.9" style="stop-color:#8B00FF"/>
		</linearGradient>
		<path class="st54" d="M-539.6,72.4l2.6,4.3l2.1-1.3l0,0c0.7-0.5,1.2-1.3,1.2-2.1v-2.5h-5L-539.6,72.4z"/>
		
			<linearGradient id="SVGID_56_" gradientUnits="userSpaceOnUse" x1="-574.8192" y1="690.631" x2="-530.6192" y2="644.121" gradientTransform="matrix(1 0 0 1 0 -592)">
			<stop  offset="0" style="stop-color:#0033FF"/>
			<stop  offset="0.14" style="stop-color:#0331FF"/>
			<stop  offset="0.25" style="stop-color:#0C29FF"/>
			<stop  offset="0.34" style="stop-color:#1C1BFF"/>
			<stop  offset="0.43" style="stop-color:#3308FF"/>
			<stop  offset="0.46" style="stop-color:#3D00FF"/>
			<stop  offset="0.9" style="stop-color:#8B00FF"/>
		</linearGradient>
		<rect x="-538.6" y="55.4" class="st55" width="5" height="5"/>
		
			<linearGradient id="SVGID_57_" gradientUnits="userSpaceOnUse" x1="-582.3491" y1="683.4825" x2="-538.1392" y2="636.9725" gradientTransform="matrix(1 0 0 1 0 -592)">
			<stop  offset="0" style="stop-color:#0033FF"/>
			<stop  offset="0.14" style="stop-color:#0331FF"/>
			<stop  offset="0.25" style="stop-color:#0C29FF"/>
			<stop  offset="0.34" style="stop-color:#1C1BFF"/>
			<stop  offset="0.43" style="stop-color:#3308FF"/>
			<stop  offset="0.46" style="stop-color:#3D00FF"/>
			<stop  offset="0.9" style="stop-color:#8B00FF"/>
		</linearGradient>
		<path class="st56" d="M-534.9,40.3l-2.2-1.2l-2.4,4.4l0.9,1.5h5v-2.5l0,0C-533.6,41.6-534.1,40.8-534.9,40.3z"/>
		
			<linearGradient id="SVGID_58_" gradientUnits="userSpaceOnUse" x1="-598.2865" y1="672.4377" x2="-554.0865" y2="625.9277" gradientTransform="matrix(1.0034 -1.987308e-03 1.987308e-03 1.0034 5.6503 -594.8582)">
			<stop  offset="0" style="stop-color:#0033FF"/>
			<stop  offset="0.14" style="stop-color:#0331FF"/>
			<stop  offset="0.25" style="stop-color:#0C29FF"/>
			<stop  offset="0.34" style="stop-color:#1C1BFF"/>
			<stop  offset="0.43" style="stop-color:#3308FF"/>
			<stop  offset="0.46" style="stop-color:#3D00FF"/>
			<stop  offset="0.9" style="stop-color:#8B00FF"/>
		</linearGradient>
		<polygon class="st57" points="-552.8,35.5 -550.3,31.2 -545.9,33.7 -548.4,38 		"/>
		
			<linearGradient id="SVGID_59_" gradientUnits="userSpaceOnUse" x1="-604.1584" y1="662.7506" x2="-559.9584" y2="616.2406" gradientTransform="matrix(1 0 0 1 0 -592)">
			<stop  offset="0" style="stop-color:#0033FF"/>
			<stop  offset="0.14" style="stop-color:#0331FF"/>
			<stop  offset="0.25" style="stop-color:#0C29FF"/>
			<stop  offset="0.34" style="stop-color:#1C1BFF"/>
			<stop  offset="0.43" style="stop-color:#3308FF"/>
			<stop  offset="0.46" style="stop-color:#3D00FF"/>
			<stop  offset="0.9" style="stop-color:#8B00FF"/>
		</linearGradient>
		<path class="st58" d="M-561.5,25c-0.7-0.4-1.7-0.4-2.4,0l-2.2,1.2l2.4,4.4h2l2.4-4.4L-561.5,25L-561.5,25z"/>
		
			<linearGradient id="SVGID_60_" gradientUnits="userSpaceOnUse" x1="-607.3505" y1="659.7216" x2="-563.1405" y2="613.2116" gradientTransform="matrix(1 0 0 1 -6.554856e-03 -591.9976)">
			<stop  offset="0" style="stop-color:#0033FF"/>
			<stop  offset="0.14" style="stop-color:#0331FF"/>
			<stop  offset="0.25" style="stop-color:#0C29FF"/>
			<stop  offset="0.34" style="stop-color:#1C1BFF"/>
			<stop  offset="0.43" style="stop-color:#3308FF"/>
			<stop  offset="0.46" style="stop-color:#3D00FF"/>
			<stop  offset="0.9" style="stop-color:#8B00FF"/>
		</linearGradient>
		<polygon class="st59" points="-579.5,33.9 -575.1,31.4 -572.6,35.7 -577,38.2 		"/>
		
			<linearGradient id="SVGID_61_" gradientUnits="userSpaceOnUse" x1="-610.0996" y1="657.111" x2="-565.8896" y2="610.601" gradientTransform="matrix(1 0 0 1 0 -592)">
			<stop  offset="0" style="stop-color:#0033FF"/>
			<stop  offset="0.14" style="stop-color:#0331FF"/>
			<stop  offset="0.25" style="stop-color:#0C29FF"/>
			<stop  offset="0.34" style="stop-color:#1C1BFF"/>
			<stop  offset="0.43" style="stop-color:#3308FF"/>
			<stop  offset="0.46" style="stop-color:#3D00FF"/>
			<stop  offset="0.9" style="stop-color:#8B00FF"/>
		</linearGradient>
		<path class="st60" d="M-585.9,43.5l-2.4-4.4l-2.2,1.2l0,0c-0.8,0.4-1.3,1.3-1.3,2.2V45h5L-585.9,43.5z"/>
		
			<linearGradient id="SVGID_62_" gradientUnits="userSpaceOnUse" x1="-602.777" y1="664.0726" x2="-558.577" y2="617.5526" gradientTransform="matrix(1 0 0 1 0 -592)">
			<stop  offset="0" style="stop-color:#0033FF"/>
			<stop  offset="0.14" style="stop-color:#0331FF"/>
			<stop  offset="0.25" style="stop-color:#0C29FF"/>
			<stop  offset="0.34" style="stop-color:#1C1BFF"/>
			<stop  offset="0.43" style="stop-color:#3308FF"/>
			<stop  offset="0.46" style="stop-color:#3D00FF"/>
			<stop  offset="0.9" style="stop-color:#8B00FF"/>
		</linearGradient>
		<rect x="-591.8" y="55.4" class="st61" width="5" height="5"/>
		
			<linearGradient id="SVGID_63_" gradientUnits="userSpaceOnUse" x1="-595.3558" y1="671.1161" x2="-551.1559" y2="624.6061" gradientTransform="matrix(1 0 0 1 0 -592)">
			<stop  offset="0" style="stop-color:#0033FF"/>
			<stop  offset="0.14" style="stop-color:#0331FF"/>
			<stop  offset="0.25" style="stop-color:#0C29FF"/>
			<stop  offset="0.34" style="stop-color:#1C1BFF"/>
			<stop  offset="0.43" style="stop-color:#3308FF"/>
			<stop  offset="0.46" style="stop-color:#3D00FF"/>
			<stop  offset="0.9" style="stop-color:#8B00FF"/>
		</linearGradient>
		<path class="st62" d="M-585.9,72.4l-0.9-1.7h-5v2.5l0,0c0,0.9,0.4,1.7,1.2,2.1l2.1,1.3L-585.9,72.4z"/>
		
			<linearGradient id="SVGID_64_" gradientUnits="userSpaceOnUse" x1="-584.3268" y1="681.6052" x2="-540.1268" y2="635.0851" gradientTransform="matrix(1 0 0 1 -1.069799e-03 -592.0046)">
			<stop  offset="0" style="stop-color:#0033FF"/>
			<stop  offset="0.14" style="stop-color:#0331FF"/>
			<stop  offset="0.25" style="stop-color:#0C29FF"/>
			<stop  offset="0.34" style="stop-color:#1C1BFF"/>
			<stop  offset="0.43" style="stop-color:#3308FF"/>
			<stop  offset="0.46" style="stop-color:#3D00FF"/>
			<stop  offset="0.9" style="stop-color:#8B00FF"/>
		</linearGradient>
		<polygon class="st63" points="-579.5,81.8 -577,77.5 -572.6,80 -575.1,84.3 		"/>
		
			<linearGradient id="SVGID_65_" gradientUnits="userSpaceOnUse" x1="-573.4379" y1="691.9527" x2="-529.2379" y2="645.4327" gradientTransform="matrix(1 0 0 1 0 -592)">
			<stop  offset="0" style="stop-color:#0033FF"/>
			<stop  offset="0.14" style="stop-color:#0331FF"/>
			<stop  offset="0.25" style="stop-color:#0C29FF"/>
			<stop  offset="0.34" style="stop-color:#1C1BFF"/>
			<stop  offset="0.43" style="stop-color:#3308FF"/>
			<stop  offset="0.46" style="stop-color:#3D00FF"/>
			<stop  offset="0.9" style="stop-color:#8B00FF"/>
		</linearGradient>
		<path class="st64" d="M-563.7,85.2l-2.4,4.4l2.2,1.2l0,0c0.8,0.4,1.7,0.4,2.4,0l2.2-1.2l-2.4-4.4H-563.7z"/>
		
			<linearGradient id="SVGID_66_" gradientUnits="userSpaceOnUse" x1="-570.3274" y1="694.9042" x2="-526.1274" y2="648.3842" gradientTransform="matrix(1 0 0 1 2.040803e-03 -591.9923)">
			<stop  offset="0" style="stop-color:#0033FF"/>
			<stop  offset="0.14" style="stop-color:#0331FF"/>
			<stop  offset="0.25" style="stop-color:#0C29FF"/>
			<stop  offset="0.34" style="stop-color:#1C1BFF"/>
			<stop  offset="0.43" style="stop-color:#3308FF"/>
			<stop  offset="0.46" style="stop-color:#3D00FF"/>
			<stop  offset="0.9" style="stop-color:#8B00FF"/>
		</linearGradient>
		<polygon class="st65" points="-552.8,80 -548.5,77.5 -546,81.8 -550.3,84.3 		"/>
		
			<linearGradient id="SVGID_67_" gradientUnits="userSpaceOnUse" x1="-575.7516" y1="689.7497" x2="-531.5516" y2="643.2297" gradientTransform="matrix(1 0 0 1 0 -592)">
			<stop  offset="0" style="stop-color:#0033FF"/>
			<stop  offset="0.14" style="stop-color:#0331FF"/>
			<stop  offset="0.25" style="stop-color:#0C29FF"/>
			<stop  offset="0.34" style="stop-color:#1C1BFF"/>
			<stop  offset="0.43" style="stop-color:#3308FF"/>
			<stop  offset="0.46" style="stop-color:#3D00FF"/>
			<stop  offset="0.9" style="stop-color:#8B00FF"/>
		</linearGradient>
		<path class="st66" d="M-549.6,66.4l2.4,4.4l2.2-1.2l0,0c0.8-0.4,1.3-1.3,1.3-2.2v-2.5h-5L-549.6,66.4z"/>
		
			<linearGradient id="SVGID_68_" gradientUnits="userSpaceOnUse" x1="-584.7505" y1="681.2016" x2="-540.5505" y2="634.6816" gradientTransform="matrix(1 0 0 1 0 -592)">
			<stop  offset="0" style="stop-color:#0033FF"/>
			<stop  offset="0.14" style="stop-color:#0331FF"/>
			<stop  offset="0.25" style="stop-color:#0C29FF"/>
			<stop  offset="0.34" style="stop-color:#1C1BFF"/>
			<stop  offset="0.43" style="stop-color:#3308FF"/>
			<stop  offset="0.46" style="stop-color:#3D00FF"/>
			<stop  offset="0.9" style="stop-color:#8B00FF"/>
		</linearGradient>
		<path class="st67" d="M-543.7,48.3c0-0.9-0.5-1.7-1.3-2.2l-2.2-1.2l-2.4,4.4l0.9,1.5h5V48.3L-543.7,48.3z"/>
		
			<linearGradient id="SVGID_69_" gradientUnits="userSpaceOnUse" x1="-598.3655" y1="668.2549" x2="-554.1655" y2="621.7449" gradientTransform="matrix(1 0 0 1 0 -592)">
			<stop  offset="0" style="stop-color:#0033FF"/>
			<stop  offset="0.14" style="stop-color:#0331FF"/>
			<stop  offset="0.25" style="stop-color:#0C29FF"/>
			<stop  offset="0.34" style="stop-color:#1C1BFF"/>
			<stop  offset="0.43" style="stop-color:#3308FF"/>
			<stop  offset="0.46" style="stop-color:#3D00FF"/>
			<stop  offset="0.9" style="stop-color:#8B00FF"/>
		</linearGradient>
		<path class="st68" d="M-561.5,36.6c-0.8-0.4-1.7-0.4-2.4,0l-2.2,1.2l2.4,4.4h2l2.4-4.4L-561.5,36.6L-561.5,36.6z"/>
		
			<linearGradient id="SVGID_70_" gradientUnits="userSpaceOnUse" x1="-601.9234" y1="664.8788" x2="-557.7134" y2="618.3688" gradientTransform="matrix(1 0 0 1 0 -592)">
			<stop  offset="0" style="stop-color:#0033FF"/>
			<stop  offset="0.14" style="stop-color:#0331FF"/>
			<stop  offset="0.25" style="stop-color:#0C29FF"/>
			<stop  offset="0.34" style="stop-color:#1C1BFF"/>
			<stop  offset="0.43" style="stop-color:#3308FF"/>
			<stop  offset="0.46" style="stop-color:#3D00FF"/>
			<stop  offset="0.9" style="stop-color:#8B00FF"/>
		</linearGradient>
		<path class="st69" d="M-575.8,49.1l-2.7-4.2l-2.1,1.3l0,0c-0.7,0.5-1.2,1.3-1.2,2.1v2.5h5L-575.8,49.1z"/>
		
			<linearGradient id="SVGID_71_" gradientUnits="userSpaceOnUse" x1="-593.0018" y1="673.3615" x2="-548.7918" y2="626.8415" gradientTransform="matrix(1 0 0 1 0 -592)">
			<stop  offset="0" style="stop-color:#0033FF"/>
			<stop  offset="0.14" style="stop-color:#0331FF"/>
			<stop  offset="0.25" style="stop-color:#0C29FF"/>
			<stop  offset="0.34" style="stop-color:#1C1BFF"/>
			<stop  offset="0.43" style="stop-color:#3308FF"/>
			<stop  offset="0.46" style="stop-color:#3D00FF"/>
			<stop  offset="0.9" style="stop-color:#8B00FF"/>
		</linearGradient>
		<path class="st70" d="M-575.8,66.6l-1-1.7h-5v2.5l0,0c0,0.9,0.4,1.7,1.2,2.1l2.1,1.3L-575.8,66.6z"/>
		
			<linearGradient id="SVGID_72_" gradientUnits="userSpaceOnUse" x1="-579.2322" y1="686.447" x2="-535.0223" y2="639.927" gradientTransform="matrix(1 0 0 1 0 -592)">
			<stop  offset="0" style="stop-color:#0033FF"/>
			<stop  offset="0.14" style="stop-color:#0331FF"/>
			<stop  offset="0.25" style="stop-color:#0C29FF"/>
			<stop  offset="0.34" style="stop-color:#1C1BFF"/>
			<stop  offset="0.43" style="stop-color:#3308FF"/>
			<stop  offset="0.46" style="stop-color:#3D00FF"/>
			<stop  offset="0.9" style="stop-color:#8B00FF"/>
		</linearGradient>
		<path class="st71" d="M-563.7,73.6l-2.4,4.4l2.2,1.2l0,0c0.8,0.4,1.7,0.4,2.4,0l2.2-1.2l-2.4-4.4H-563.7z"/>
		<path d="M-487.3,32.3v18h-2.4l-0.3-2c-1,1.4-2.6,2.2-4.3,2.1c-1.1,0-2.2-0.3-3.2-0.8s-1.7-1.4-2.2-2.3c-0.5-1.1-0.8-2.3-0.8-3.6
			c0-1.2,0.3-2.4,0.8-3.5c0.5-1,1.3-1.8,2.2-2.4c1-0.6,2.1-0.9,3.2-0.8c0.9,0,1.7,0.2,2.5,0.5c0.7,0.3,1.3,0.9,1.7,1.5v-6.7H-487.3z
			 M-491.1,46.9c0.7-0.9,1.1-2,1-3.1c0.1-1.2-0.3-2.3-1-3.2c-1.4-1.5-3.8-1.6-5.3-0.2c-0.1,0.1-0.1,0.1-0.2,0.2
			c-0.7,0.9-1.1,2-1,3.2c-0.1,1.1,0.3,2.3,1,3.2c1.4,1.5,3.8,1.6,5.4,0.2C-491.2,47-491.1,47-491.1,46.9L-491.1,46.9z"/>
		<path d="M-485.4,32.3h3.1l3.8,14.3l4-14.2h2.8l3.9,14.2l3.9-14.3h3l-5.1,18h-3.5l-3.7-13.2l-3.6,13.2h-3.5L-485.4,32.3z"/>
		<path d="M-459.9,40.2c0.5-1,1.3-1.8,2.3-2.4c1-0.6,2.2-0.9,3.3-0.8c1.2,0,2.3,0.2,3.4,0.8c1,0.5,1.7,1.3,2.3,2.2
			c0.6,1,0.9,2.2,0.9,3.3c0,0.4,0,0.7-0.1,1.1h-9.9v0.2c0,1,0.4,2,1.1,2.7s1.6,1,2.6,1c0.8,0,1.5-0.2,2.2-0.6c0.6-0.4,1-1,1.2-1.7
			h2.8c-0.2,1.3-0.9,2.5-1.9,3.3c-1.1,0.9-2.5,1.3-3.9,1.3c-1.2,0-2.5-0.3-3.6-0.8c-1-0.5-1.9-1.4-2.4-2.4c-0.6-1.1-0.9-2.3-0.8-3.5
			C-460.8,42.5-460.5,41.3-459.9,40.2z M-450.7,42.3c-0.1-0.9-0.5-1.7-1.2-2.3c-0.7-0.6-1.5-0.8-2.4-0.8s-1.7,0.3-2.4,0.8
			c-0.7,0.6-1.1,1.4-1.1,2.2L-450.7,42.3z"/>
		<path d="M-435.4,37.8c0.9,0.5,1.7,1.4,2.2,2.3c0.6,1.1,0.8,2.4,0.8,3.6c0,1.2-0.2,2.4-0.8,3.5c-0.5,1-1.3,1.8-2.2,2.4
			c-1,0.6-2.1,0.9-3.2,0.8c-0.9,0-1.7-0.2-2.5-0.5c-0.7-0.4-1.3-0.9-1.8-1.5l-0.3,1.9h-2.4v-18h2.8v6.8c1-1.4,2.6-2.1,4.3-2.1
			C-437.4,37-436.3,37.2-435.4,37.8z M-436.2,46.9c0.7-0.9,1.1-2,1.1-3.2c0-1.1-0.3-2.3-1.1-3.2c-0.7-0.8-1.7-1.3-2.8-1.2
			c-1.1,0-2.1,0.4-2.8,1.2c-0.7,0.9-1.1,2-1.1,3.1c-0.1,1.2,0.3,2.3,1.1,3.2c0.7,0.8,1.7,1.3,2.8,1.2
			C-438,48.1-436.9,47.7-436.2,46.9z"/>
		<path d="M-499.8,63.2h11.5v2.6h-8.5V71h7v2.5h-7v7.6h-3V63.2z"/>
		<path d="M-484.5,80.5c-1-0.5-1.8-1.4-2.4-2.4c-1.1-2.2-1.1-4.8,0-7c0.5-1,1.4-1.8,2.4-2.4c2.2-1.1,4.8-1.1,7,0
			c1,0.6,1.8,1.4,2.4,2.4c1.1,2.2,1.1,4.8,0,7c-0.5,1-1.4,1.8-2.4,2.4C-479.8,81.6-482.4,81.6-484.5,80.5L-484.5,80.5z M-478.2,77.7
			c1.4-1.9,1.4-4.4,0-6.3c-1.5-1.6-3.9-1.6-5.4-0.2c-0.1,0.1-0.1,0.1-0.2,0.2c-1.4,1.9-1.4,4.4,0,6.3c1.5,1.6,3.9,1.6,5.4,0.2
			C-478.3,77.8-478.3,77.8-478.2,77.7z"/>
		<path d="M-460.3,68v13.1h-2.4l-0.3-1.7c-1,1.2-2.5,1.9-4.1,1.8c-1.4,0.1-2.8-0.5-3.8-1.4c-1-1-1.4-2.5-1.4-4.6V68h2.8v7
			c-0.1,1,0.2,2.1,0.8,2.9c0.6,0.7,1.4,1.1,2.3,1c1,0,1.9-0.4,2.5-1.2c0.6-0.9,1-2.1,0.9-3.2V68H-460.3z"/>
		<path d="M-446.8,69.3c1,1,1.5,2.5,1.5,4.6v7.2h-2.8V74c0.1-1-0.2-2-0.8-2.8c-0.6-0.7-1.4-1-2.3-1c-1,0-2,0.4-2.6,1.1
			c-0.7,0.9-1,2-0.9,3.2v6.6h-2.8V68h2.4l0.3,1.7c1-1.3,2.6-2,4.2-1.9C-449.2,67.8-447.8,68.3-446.8,69.3z"/>
		<path d="M-430,63.2v18h-2.4l-0.3-2c-1,1.4-2.6,2.2-4.3,2.1c-1.1,0-2.2-0.3-3.2-0.8c-0.9-0.5-1.7-1.4-2.2-2.3
			c-0.6-1.1-0.8-2.3-0.8-3.6c0-1.2,0.3-2.4,0.8-3.5c0.5-1,1.3-1.8,2.2-2.4c1-0.6,2.1-0.9,3.2-0.8c0.9,0,1.7,0.2,2.5,0.5
			c0.7,0.3,1.3,0.8,1.8,1.5v-6.6L-430,63.2L-430,63.2z M-433.8,77.8c0.7-0.9,1.1-2,1.1-3.1c0.1-1.2-0.3-2.3-1.1-3.2
			c-1.4-1.5-3.8-1.6-5.3-0.2c-0.1,0.1-0.2,0.1-0.2,0.2c-1.4,1.9-1.4,4.4,0,6.3c0.7,0.8,1.7,1.3,2.8,1.3
			C-435.5,79-434.5,78.6-433.8,77.8z"/>
		<path d="M-414.7,78.7v2.4h-1.5c-0.7,0.1-1.3-0.1-1.9-0.5c-0.4-0.4-0.6-1-0.6-1.6c-0.9,1.5-2.6,2.3-4.3,2.3c-1.3,0.1-2.5-0.3-3.6-1
			c-0.9-0.7-1.4-1.7-1.3-2.8c-0.1-1.2,0.5-2.4,1.4-3.1c1.2-0.8,2.7-1.2,4.2-1.1h3.3v-0.8c0-0.7-0.3-1.3-0.8-1.7
			c-0.6-0.5-1.4-0.7-2.1-0.6c-0.7,0-1.4,0.2-2,0.5c-0.5,0.3-0.8,0.8-0.9,1.4h-2.7c0.1-1.2,0.7-2.4,1.8-3.1c1.2-0.8,2.6-1.2,4-1.1
			c1.5-0.1,2.9,0.3,4.1,1.2c1,0.9,1.5,2.2,1.4,3.5v5.2c0,0.6,0.3,0.9,0.9,0.9L-414.7,78.7z M-418.9,75.3h-3.4
			c-0.7-0.1-1.4,0.1-2,0.5c-0.5,0.3-0.7,0.9-0.7,1.5c0,0.5,0.2,1,0.7,1.4s1.1,0.5,1.8,0.5c1,0.1,1.9-0.3,2.7-0.9
			c0.7-0.7,1-1.5,1-2.5L-418.9,75.3z"/>
		<path d="M-412.4,70.4h-2.3V68h2.3v-3.7h2.8V68h3.2v2.4h-3.2v6.9c0,0.4,0.1,0.8,0.3,1.1c0.3,0.2,0.7,0.4,1.1,0.3h2.1v2.4h-2.7
			c-1.7,0.3-3.3-0.9-3.6-2.6c-0.1-0.3-0.1-0.7,0-1V70.4L-412.4,70.4z"/>
		<path d="M-402,63.2c0.3,0.3,0.5,0.7,0.5,1.2c0,0.4-0.2,0.9-0.5,1.2c-0.7,0.6-1.7,0.6-2.4,0c-0.3-0.3-0.5-0.7-0.5-1.2
			c0-0.4,0.2-0.9,0.5-1.2C-403.7,62.6-402.7,62.6-402,63.2z M-404.6,68h2.8v13.1h-2.8V68z"/>
		<path d="M-396.4,80.5c-1-0.5-1.8-1.4-2.4-2.4c-1.1-2.2-1.1-4.8,0-7c0.5-1,1.4-1.8,2.4-2.4c2.2-1.1,4.8-1.1,7,0
			c1,0.6,1.8,1.4,2.4,2.4c1.1,2.2,1.1,4.8,0,7c-0.5,1-1.4,1.8-2.4,2.4C-391.6,81.6-394.2,81.6-396.4,80.5z M-390.1,77.7
			c1.4-1.9,1.4-4.4,0-6.3c-0.7-0.8-1.7-1.3-2.8-1.2c-1.1,0-2.1,0.4-2.8,1.2c-1.4,1.9-1.4,4.4,0,6.3c0.7,0.8,1.7,1.3,2.8,1.2
			C-391.8,79-390.8,78.5-390.1,77.7L-390.1,77.7z"/>
		<path d="M-373.2,69.3c1,1,1.5,2.5,1.5,4.6v7.2h-2.8V74c0.1-1-0.2-2-0.8-2.8c-0.6-0.7-1.4-1.1-2.3-1c-1,0-1.9,0.4-2.6,1.1
			c-0.7,0.9-1,2-0.9,3.2v6.6h-2.8V68h2.4l0.3,1.7c1-1.3,2.6-2,4.2-1.9C-375.6,67.8-374.2,68.3-373.2,69.3z"/>
	</g>
</g>
</svg>
